<svg width="17" height="17" viewBox="0 0 17 17" fill="none" xmlns="http://www.w3.org/2000/svg">
<g id="account_circle">
<mask id="mask0_1_247" style="mask-type:alpha" maskUnits="userSpaceOnUse" x="0" y="0" width="18" height="17">
<rect id="Bounding box" x="0.000366211" width="17" height="17" fill="#D9D9D9"/>
</mask>
<g mask="url(#mask0_1_247)">
<path id="account_circle_2" d="M4.14444 12.1123C4.74653 11.6519 5.41944 11.2889 6.16319 11.0233C6.90694 10.7577 7.68611 10.6248 8.50069 10.6248C9.31528 10.6248 10.0944 10.7577 10.8382 11.0233C11.5819 11.2889 12.2549 11.6519 12.8569 12.1123C13.2701 11.6283 13.5918 11.0794 13.822 10.4655C14.0523 9.85157 14.1674 9.19637 14.1674 8.49984C14.1674 6.9297 13.6154 5.59272 12.5116 4.4889C11.4078 3.38508 10.0708 2.83317 8.50069 2.83317C6.93055 2.83317 5.59357 3.38508 4.48975 4.4889C3.38593 5.59272 2.83403 6.9297 2.83403 8.49984C2.83403 9.19637 2.94913 9.85157 3.17934 10.4655C3.40955 11.0794 3.73125 11.6283 4.14444 12.1123ZM8.50069 9.20817C7.80416 9.20817 7.21684 8.96911 6.73871 8.49098C6.26059 8.01286 6.02153 7.42553 6.02153 6.729C6.02153 6.03248 6.26059 5.44515 6.73871 4.96703C7.21684 4.4889 7.80416 4.24984 8.50069 4.24984C9.19722 4.24984 9.78455 4.4889 10.2627 4.96703C10.7408 5.44515 10.9799 6.03248 10.9799 6.729C10.9799 7.42553 10.7408 8.01286 10.2627 8.49098C9.78455 8.96911 9.19722 9.20817 8.50069 9.20817ZM8.50069 15.5832C7.52083 15.5832 6.6 15.3972 5.73819 15.0254C4.87639 14.6535 4.12673 14.1488 3.48923 13.5113C2.85173 12.8738 2.34705 12.1241 1.97517 11.2623C1.6033 10.4005 1.41736 9.4797 1.41736 8.49984C1.41736 7.51998 1.6033 6.59914 1.97517 5.73734C2.34705 4.87553 2.85173 4.12588 3.48923 3.48838C4.12673 2.85088 4.87639 2.34619 5.73819 1.97432C6.6 1.60244 7.52083 1.4165 8.50069 1.4165C9.48055 1.4165 10.4014 1.60244 11.2632 1.97432C12.125 2.34619 12.8747 2.85088 13.5122 3.48838C14.1497 4.12588 14.6543 4.87553 15.0262 5.73734C15.3981 6.59914 15.584 7.51998 15.584 8.49984C15.584 9.4797 15.3981 10.4005 15.0262 11.2623C14.6543 12.1241 14.1497 12.8738 13.5122 13.5113C12.8747 14.1488 12.125 14.6535 11.2632 15.0254C10.4014 15.3972 9.48055 15.5832 8.50069 15.5832ZM8.50069 14.1665C9.12639 14.1665 9.71666 14.075 10.2715 13.892C10.8264 13.709 11.334 13.4464 11.7944 13.104C11.334 12.7616 10.8264 12.499 10.2715 12.316C9.71666 12.133 9.12639 12.0415 8.50069 12.0415C7.875 12.0415 7.28472 12.133 6.72986 12.316C6.175 12.499 5.66736 12.7616 5.20694 13.104C5.66736 13.4464 6.175 13.709 6.72986 13.892C7.28472 14.075 7.875 14.1665 8.50069 14.1665ZM8.50069 7.7915C8.80764 7.7915 9.06146 7.69116 9.26215 7.49046C9.46284 7.28977 9.56319 7.03595 9.56319 6.729C9.56319 6.42206 9.46284 6.16824 9.26215 5.96755C9.06146 5.76685 8.80764 5.6665 8.50069 5.6665C8.19375 5.6665 7.93993 5.76685 7.73923 5.96755C7.53854 6.16824 7.43819 6.42206 7.43819 6.729C7.43819 7.03595 7.53854 7.28977 7.73923 7.49046C7.93993 7.69116 8.19375 7.7915 8.50069 7.7915Z" fill="white"/>
</g>
</g>
</svg>
