<svg width="17" height="17" viewBox="0 0 17 17" fill="none" xmlns="http://www.w3.org/2000/svg">
<g id="account_balance_wallet">
<mask id="mask0_1_241" style="mask-type:alpha" maskUnits="userSpaceOnUse" x="0" y="0" width="18" height="17">
<rect id="Bounding box" x="0.000366211" width="17" height="17" fill="#D9D9D9"/>
</mask>
<g mask="url(#mask0_1_241)">
<path id="account_balance_wallet_2" d="M11.3337 9.5625C11.6406 9.5625 11.8945 9.46215 12.0952 9.26146C12.2959 9.06076 12.3962 8.80694 12.3962 8.5C12.3962 8.19306 12.2959 7.93924 12.0952 7.73854C11.8945 7.53785 11.6406 7.4375 11.3337 7.4375C11.0268 7.4375 10.7729 7.53785 10.5722 7.73854C10.3715 7.93924 10.2712 8.19306 10.2712 8.5C10.2712 8.80694 10.3715 9.06076 10.5722 9.26146C10.7729 9.46215 11.0268 9.5625 11.3337 9.5625ZM3.54203 14.875C3.15245 14.875 2.81894 14.7363 2.54151 14.4589C2.26408 14.1814 2.12537 13.8479 2.12537 13.4583V3.54167C2.12537 3.15208 2.26408 2.81858 2.54151 2.54115C2.81894 2.26372 3.15245 2.125 3.54203 2.125H13.4587C13.8483 2.125 14.1818 2.26372 14.4592 2.54115C14.7367 2.81858 14.8754 3.15208 14.8754 3.54167V5.3125H13.4587V3.54167H3.54203V13.4583H13.4587V11.6875H14.8754V13.4583C14.8754 13.8479 14.7367 14.1814 14.4592 14.4589C14.1818 14.7363 13.8483 14.875 13.4587 14.875H3.54203ZM9.2087 12.0417C8.81912 12.0417 8.48561 11.903 8.20818 11.6255C7.93075 11.3481 7.79203 11.0146 7.79203 10.625V6.375C7.79203 5.98542 7.93075 5.65191 8.20818 5.37448C8.48561 5.09705 8.81912 4.95833 9.2087 4.95833H14.167C14.5566 4.95833 14.8901 5.09705 15.1676 5.37448C15.445 5.65191 15.5837 5.98542 15.5837 6.375V10.625C15.5837 11.0146 15.445 11.3481 15.1676 11.6255C14.8901 11.903 14.5566 12.0417 14.167 12.0417H9.2087ZM14.167 10.625V6.375H9.2087V10.625H14.167Z" fill="white"/>
</g>
</g>
</svg>
