<svg width="20" height="20" viewBox="0 0 20 20" fill="none" xmlns="http://www.w3.org/2000/svg">
<g id="shopping_basket">
<mask id="mask0_1_227" style="mask-type:alpha" maskUnits="userSpaceOnUse" x="0" y="0" width="21" height="20">
<rect id="Bounding box" x="0.000366211" width="20" height="20" fill="#D9D9D9"/>
</mask>
<g mask="url(#mask0_1_227)">
<path id="shopping_basket_2" d="M4.16733 17.5001C3.93122 17.5001 3.71594 17.4272 3.5215 17.2813C3.32705 17.1355 3.19511 16.9445 3.12566 16.7084L0.792328 8.29175C0.722884 8.0973 0.754134 7.91675 0.886078 7.75008C1.01802 7.58341 1.19511 7.50008 1.41733 7.50008H5.62566L9.29233 2.04175C9.36177 1.93064 9.459 1.84036 9.584 1.77091C9.709 1.70147 9.84094 1.66675 9.97983 1.66675C10.1187 1.66675 10.2507 1.70147 10.3757 1.77091C10.5007 1.84036 10.5979 1.93064 10.6673 2.04175L14.334 7.50008H18.584C18.8062 7.50008 18.9833 7.58341 19.1152 7.75008C19.2472 7.91675 19.2784 8.0973 19.209 8.29175L16.8757 16.7084C16.8062 16.9445 16.6743 17.1355 16.4798 17.2813C16.2854 17.4272 16.0701 17.5001 15.834 17.5001H4.16733ZM4.584 15.8334H15.4173L17.2507 9.16675H2.75066L4.584 15.8334ZM10.0007 14.1667C10.459 14.1667 10.8514 14.0036 11.1777 13.6772C11.5041 13.3508 11.6673 12.9584 11.6673 12.5001C11.6673 12.0417 11.5041 11.6494 11.1777 11.323C10.8514 10.9966 10.459 10.8334 10.0007 10.8334C9.54233 10.8334 9.14997 10.9966 8.82358 11.323C8.49719 11.6494 8.334 12.0417 8.334 12.5001C8.334 12.9584 8.49719 13.3508 8.82358 13.6772C9.14997 14.0036 9.54233 14.1667 10.0007 14.1667ZM7.6465 7.50008H12.334L9.97983 4.00008L7.6465 7.50008Z" fill="white"/>
</g>
</g>
</svg>
