<svg width="209" height="60" viewBox="0 0 209 60" fill="none" xmlns="http://www.w3.org/2000/svg">
<path d="M207.231 53.0804C207.231 56.2779 204.587 58.8679 201.316 58.8679H7.76823C4.49946 58.8679 1.84619 56.2779 1.84619 53.0804V6.92712C1.84619 3.73116 4.49946 1.13208 7.76823 1.13208H201.315C204.587 1.13208 207.229 3.73116 207.229 6.92712L207.231 53.0804Z" fill="black"/>
<path d="M200.692 1.20188C204.254 1.20188 207.152 4.0275 207.152 7.5V52.5C207.152 55.9725 204.254 58.7981 200.692 58.7981H8.38463C4.82309 58.7981 1.92501 55.9725 1.92501 52.5V7.5C1.92501 4.0275 4.82309 1.20188 8.38463 1.20188H200.692ZM200.692 3.8147e-06H8.38463C4.15578 3.8147e-06 0.692322 3.37688 0.692322 7.5V52.5C0.692322 56.6231 4.15578 60 8.38463 60H200.692C204.921 60 208.385 56.6231 208.385 52.5V7.5C208.385 3.37688 204.921 3.8147e-06 200.692 3.8147e-06Z" fill="#A6A6A6"/>
<path d="M47.0431 29.6759C46.9985 24.8414 51.1031 22.4894 51.2908 22.3799C48.9662 19.0754 45.3631 18.6239 44.097 18.5879C41.0708 18.2774 38.1354 20.3534 36.5939 20.3534C35.0216 20.3534 32.6477 18.6179 30.0893 18.6689C26.797 18.7184 23.717 20.5769 22.0277 23.4629C18.5416 29.3474 21.1416 37.9949 24.4816 42.7514C26.1523 45.0809 28.1046 47.6819 30.66 47.5904C33.16 47.4899 34.0939 46.0364 37.1108 46.0364C40.1 46.0364 40.977 47.5904 43.5831 47.5319C46.2662 47.4899 47.9554 45.1919 49.5677 42.8414C51.4985 40.1714 52.2739 37.5419 52.3046 37.4069C52.2416 37.3859 47.0939 35.4704 47.0431 29.6759Z" fill="white"/>
<path d="M42.12 15.4589C43.4646 13.8194 44.3846 11.5889 44.1293 9.32544C42.1831 9.40944 39.7493 10.6379 38.3477 12.2414C37.1077 13.6544 36 15.9704 36.2862 18.1484C38.4723 18.3074 40.717 17.0729 42.12 15.4589Z" fill="white"/>
<path d="M76.1539 15.0135C76.1539 16.779 75.6108 18.108 74.5262 19.0005C73.5216 19.824 72.0939 20.2365 70.2446 20.2365C69.3277 20.2365 68.5431 20.1975 67.8862 20.1195V10.473C68.7431 10.338 69.6662 10.269 70.6631 10.269C72.4246 10.269 73.7523 10.6425 74.6477 11.3895C75.6508 12.234 76.1539 13.4415 76.1539 15.0135ZM74.4539 15.057C74.4539 13.9125 74.1431 13.035 73.5216 12.423C72.9 11.8125 71.9923 11.5065 70.7969 11.5065C70.2893 11.5065 69.8569 11.5395 69.4985 11.6085V18.942C69.6969 18.972 70.06 18.9855 70.5877 18.9855C71.8216 18.9855 72.7739 18.651 73.4446 17.982C74.1154 17.313 74.4539 16.338 74.4539 15.057Z" fill="white"/>
<path d="M85.1677 16.5556C85.1677 17.6431 84.8493 18.5341 84.2123 19.2331C83.5446 19.9516 82.66 20.3101 81.5554 20.3101C80.4908 20.3101 79.6431 19.9666 79.0108 19.2766C78.38 18.5881 78.0646 17.7196 78.0646 16.6726C78.0646 15.5776 78.3892 14.6791 79.0416 13.9816C79.6939 13.2841 80.5708 12.9346 81.6754 12.9346C82.74 12.9346 83.5954 13.2781 84.2431 13.9666C84.8585 14.6356 85.1677 15.4996 85.1677 16.5556ZM83.4954 16.6066C83.4954 15.9541 83.3508 15.3946 83.0631 14.9281C82.7246 14.3641 82.2431 14.0821 81.617 14.0821C80.9693 14.0821 80.4769 14.3641 80.1385 14.9281C79.8493 15.3946 79.7062 15.9631 79.7062 16.6351C79.7062 17.2876 79.8508 17.8471 80.1385 18.3136C80.4877 18.8776 80.9739 19.1596 81.6016 19.1596C82.2169 19.1596 82.7 18.8731 83.0477 18.2986C83.3462 17.8231 83.4954 17.2591 83.4954 16.6066Z" fill="white"/>
<path d="M97.2538 13.0784L94.9846 20.1494H93.5077L92.5677 17.0789C92.3292 16.3124 92.1354 15.5504 91.9846 14.7944H91.9554C91.8154 15.5714 91.6215 16.3319 91.3723 17.0789L90.3738 20.1494H88.88L86.7462 13.0784H88.4031L89.2231 16.4399C89.4215 17.2349 89.5846 17.9924 89.7154 18.7094H89.7446C89.8646 18.1184 90.0631 17.3654 90.3431 16.4549L91.3723 13.0799H92.6862L93.6723 16.3829C93.9108 17.1884 94.1046 17.9639 94.2538 18.7109H94.2985C94.4077 17.9834 94.5723 17.2079 94.7908 16.3829L95.6708 13.0799H97.2538V13.0784Z" fill="white"/>
<path d="M105.612 20.1494H104V16.0994C104 14.8514 103.514 14.2274 102.538 14.2274C102.06 14.2274 101.674 14.3984 101.374 14.7419C101.077 15.0854 100.926 15.4904 100.926 15.9539V20.1479H99.3139V15.0989C99.3139 14.4779 99.2939 13.8044 99.2554 13.0754H100.672L100.748 14.1809H100.792C100.98 13.8374 101.26 13.5539 101.628 13.3274C102.065 13.0634 102.554 12.9299 103.089 12.9299C103.766 12.9299 104.329 13.1429 104.777 13.5704C105.334 14.0939 105.612 14.8754 105.612 15.9134V20.1494V20.1494Z" fill="white"/>
<path d="M110.058 20.1495H108.448V9.83398H110.058V20.1495Z" fill="white"/>
<path d="M119.551 16.5556C119.551 17.6431 119.232 18.5341 118.595 19.2331C117.928 19.9516 117.042 20.3101 115.939 20.3101C114.872 20.3101 114.025 19.9666 113.394 19.2766C112.763 18.5881 112.448 17.7196 112.448 16.6726C112.448 15.5776 112.772 14.6791 113.425 13.9816C114.077 13.2841 114.954 12.9346 116.057 12.9346C117.123 12.9346 117.977 13.2781 118.626 13.9666C119.242 14.6356 119.551 15.4996 119.551 16.5556ZM117.877 16.6066C117.877 15.9541 117.732 15.3946 117.445 14.9281C117.108 14.3641 116.625 14.0821 116 14.0821C115.351 14.0821 114.858 14.3641 114.522 14.9281C114.232 15.3946 114.089 15.9631 114.089 16.6351C114.089 17.2876 114.234 17.8471 114.522 18.3136C114.871 18.8776 115.357 19.1596 115.985 19.1596C116.6 19.1596 117.082 18.8731 117.429 18.2986C117.729 17.8231 117.877 17.2591 117.877 16.6066Z" fill="white"/>
<path d="M127.354 20.1496H125.906L125.786 19.3351H125.742C125.246 19.9846 124.54 20.3101 123.623 20.3101C122.938 20.3101 122.385 20.0956 121.968 19.6696C121.589 19.2826 121.4 18.8011 121.4 18.2296C121.4 17.3656 121.769 16.7071 122.512 16.2511C123.254 15.7951 124.297 15.5716 125.64 15.5821V15.4501C125.64 14.5186 125.138 14.0536 124.134 14.0536C123.418 14.0536 122.788 14.2291 122.243 14.5771L121.915 13.5451C122.589 13.1386 123.422 12.9346 124.403 12.9346C126.298 12.9346 127.249 13.9096 127.249 15.8596V18.4636C127.249 19.1701 127.285 19.7326 127.354 20.1496ZM125.68 17.7196V16.6291C123.902 16.5991 123.012 17.0746 123.012 18.0541C123.012 18.4231 123.114 18.6991 123.322 18.8836C123.529 19.0681 123.794 19.1596 124.109 19.1596C124.463 19.1596 124.794 19.0501 125.095 18.8326C125.398 18.6136 125.585 18.3361 125.654 17.9956C125.671 17.9191 125.68 17.8261 125.68 17.7196Z" fill="white"/>
<path d="M136.515 20.1495H135.085L135.009 19.014H134.965C134.508 19.878 133.729 20.31 132.635 20.31C131.762 20.31 131.034 19.9755 130.457 19.3065C129.88 18.6375 129.592 17.769 129.592 16.7025C129.592 15.558 129.905 14.631 130.532 13.923C131.14 13.263 131.885 12.933 132.771 12.933C133.745 12.933 134.426 13.2525 134.814 13.893H134.845V9.83398H136.458V18.2445C136.458 18.933 136.477 19.5675 136.515 20.1495ZM134.845 17.1675V15.9885C134.845 15.7845 134.829 15.6195 134.8 15.4935C134.709 15.1155 134.514 14.7975 134.217 14.541C133.917 14.2845 133.555 14.1555 133.138 14.1555C132.537 14.1555 132.066 14.388 131.72 14.8545C131.377 15.321 131.203 15.9165 131.203 16.644C131.203 17.343 131.368 17.91 131.698 18.3465C132.048 18.8115 132.518 19.044 133.108 19.044C133.637 19.044 134.06 18.8505 134.382 18.462C134.692 18.1035 134.845 17.6715 134.845 17.1675Z" fill="white"/>
<path d="M150.305 16.5556C150.305 17.6431 149.986 18.5341 149.349 19.2331C148.682 19.9516 147.798 20.3101 146.692 20.3101C145.629 20.3101 144.782 19.9666 144.148 19.2766C143.517 18.5881 143.202 17.7196 143.202 16.6726C143.202 15.5776 143.526 14.6791 144.178 13.9816C144.831 13.2841 145.708 12.9346 146.814 12.9346C147.877 12.9346 148.734 13.2781 149.38 13.9666C149.995 14.6356 150.305 15.4996 150.305 16.5556ZM148.634 16.6066C148.634 15.9541 148.489 15.3946 148.202 14.9281C147.862 14.3641 147.382 14.0821 146.754 14.0821C146.108 14.0821 145.615 14.3641 145.275 14.9281C144.986 15.3946 144.843 15.9631 144.843 16.6351C144.843 17.2876 144.988 17.8471 145.275 18.3136C145.625 18.8776 146.111 19.1596 146.738 19.1596C147.354 19.1596 147.838 18.8731 148.186 18.2986C148.483 17.8231 148.634 17.2591 148.634 16.6066Z" fill="white"/>
<path d="M158.974 20.1494H157.363V16.0994C157.363 14.8514 156.877 14.2274 155.9 14.2274C155.422 14.2274 155.035 14.3984 154.737 14.7419C154.438 15.0854 154.289 15.4904 154.289 15.9539V20.1479H152.675V15.0989C152.675 14.4779 152.657 13.8044 152.618 13.0754H154.034L154.109 14.1809H154.154C154.343 13.8374 154.623 13.5539 154.989 13.3274C155.428 13.0634 155.915 12.9299 156.452 12.9299C157.128 12.9299 157.691 13.1429 158.138 13.5704C158.697 14.0939 158.974 14.8754 158.974 15.9134V20.1494V20.1494Z" fill="white"/>
<path d="M169.825 14.2559H168.049V17.6909C168.049 18.5639 168.365 19.0004 168.989 19.0004C169.278 19.0004 169.518 18.9764 169.708 18.9269L169.749 20.1194C169.431 20.2364 169.012 20.2949 168.497 20.2949C167.86 20.2949 167.365 20.1059 167.006 19.7279C166.646 19.3499 166.468 18.7139 166.468 17.8214V14.2559H165.408V13.0784H166.468V11.7824L168.048 11.3174V13.0769H169.823V14.2559H169.825Z" fill="white"/>
<path d="M178.36 20.1495H176.746V16.1295C176.746 14.862 176.26 14.2275 175.286 14.2275C174.538 14.2275 174.028 14.595 173.748 15.33C173.7 15.4845 173.672 15.6735 173.672 15.8955V20.148H172.062V9.83398H173.672V14.0955H173.703C174.211 13.32 174.938 12.933 175.882 12.933C176.549 12.933 177.102 13.146 177.54 13.5735C178.086 14.106 178.36 14.898 178.36 15.945V20.1495V20.1495Z" fill="white"/>
<path d="M187.165 16.2794C187.165 16.5614 187.143 16.7984 187.105 16.9919H182.269C182.291 17.6909 182.522 18.2234 182.969 18.5924C183.378 18.9224 183.906 19.0874 184.552 19.0874C185.268 19.0874 185.92 18.9764 186.508 18.7529L186.76 19.8449C186.072 20.1359 185.263 20.2814 184.326 20.2814C183.203 20.2814 182.318 19.9589 181.678 19.3139C181.035 18.6689 180.717 17.8034 180.717 16.7174C180.717 15.6509 181.014 14.7629 181.612 14.0549C182.237 13.2989 183.082 12.9209 184.148 12.9209C185.191 12.9209 185.983 13.2989 186.518 14.0549C186.951 14.6549 187.165 15.3974 187.165 16.2794ZM185.626 15.8729C185.638 15.4064 185.532 15.0044 185.314 14.6654C185.034 14.2289 184.608 14.0099 184.031 14.0099C183.505 14.0099 183.075 14.2229 182.748 14.6504C182.48 14.9909 182.322 15.3974 182.269 15.8729H185.626Z" fill="white"/>
<path d="M83.2231 47.2559H79.7292L77.8154 41.3924H71.1631L69.34 47.2559H65.9385L72.5292 27.2939H76.6L83.2231 47.2559ZM77.2385 38.9324L75.5077 33.7199C75.3246 33.1874 74.9815 31.9334 74.4754 29.9594H74.4139C74.2123 30.8084 73.8877 32.0624 73.4415 33.7199L71.7415 38.9324H77.2385V38.9324Z" fill="white"/>
<path d="M100.172 39.8819C100.172 42.3299 99.4938 44.2649 98.1369 45.6854C96.9215 46.9499 95.4123 47.5814 93.6108 47.5814C91.6661 47.5814 90.2692 46.9004 89.4185 45.5384H89.3569V53.1209H86.0769V37.6004C86.0769 36.0614 86.0354 34.4819 85.9554 32.8619H88.84L89.0231 35.1434H89.0846C90.1785 33.4244 91.8385 32.5664 94.0662 32.5664C95.8077 32.5664 97.2615 33.2369 98.4246 34.5794C99.5908 35.9234 100.172 37.6904 100.172 39.8819ZM96.8308 39.9989C96.8308 38.5979 96.5077 37.4429 95.8585 36.5339C95.1492 35.5859 94.1969 35.1119 93.0031 35.1119C92.1938 35.1119 91.4585 35.3759 90.8015 35.8964C90.1431 36.4214 89.7123 37.1069 89.5108 37.9559C89.4092 38.3519 89.3585 38.6759 89.3585 38.9309V41.3309C89.3585 42.3779 89.6877 43.2614 90.3462 43.9829C91.0046 44.7044 91.86 45.0644 92.9123 45.0644C94.1477 45.0644 95.1092 44.5994 95.7969 43.6724C96.4862 42.7439 96.8308 41.5199 96.8308 39.9989Z" fill="white"/>
<path d="M117.152 39.8819C117.152 42.3299 116.474 44.2649 115.115 45.6854C113.902 46.9499 112.392 47.5814 110.591 47.5814C108.646 47.5814 107.249 46.9004 106.4 45.5384H106.338V53.1209H103.058V37.6004C103.058 36.0614 103.017 34.4819 102.937 32.8619H105.822L106.005 35.1434H106.066C107.158 33.4244 108.818 32.5664 111.048 32.5664C112.788 32.5664 114.242 33.2369 115.408 34.5794C116.569 35.9234 117.152 37.6904 117.152 39.8819ZM113.811 39.9989C113.811 38.5979 113.486 37.4429 112.837 36.5339C112.128 35.5859 111.178 35.1119 109.983 35.1119C109.172 35.1119 108.438 35.3759 107.78 35.8964C107.122 36.4214 106.692 37.1069 106.491 37.9559C106.391 38.3519 106.338 38.6759 106.338 38.9309V41.3309C106.338 42.3779 106.668 43.2614 107.323 43.9829C107.982 44.7029 108.837 45.0644 109.892 45.0644C111.128 45.0644 112.089 44.5994 112.777 43.6724C113.466 42.7439 113.811 41.5199 113.811 39.9989Z" fill="white"/>
<path d="M136.137 41.658C136.137 43.356 135.532 44.7375 134.318 45.804C132.985 46.9695 131.128 47.5515 128.742 47.5515C126.538 47.5515 124.772 47.1375 123.435 46.308L124.195 43.6425C125.635 44.4915 127.215 44.9175 128.937 44.9175C130.172 44.9175 131.134 44.6445 131.825 44.1015C132.512 43.5585 132.855 42.8295 132.855 41.9205C132.855 41.1105 132.572 40.428 132.005 39.8745C131.44 39.321 130.497 38.8065 129.18 38.331C125.595 37.0275 123.805 35.118 123.805 32.607C123.805 30.966 124.432 29.6205 125.689 28.5735C126.942 27.525 128.612 27.0015 130.702 27.0015C132.565 27.0015 134.112 27.318 135.348 27.9495L134.528 30.5565C133.374 29.9445 132.069 29.6385 130.609 29.6385C129.455 29.6385 128.554 29.916 127.908 30.468C127.362 30.9615 127.088 31.563 127.088 32.2755C127.088 33.0645 127.4 33.717 128.028 34.23C128.574 34.704 129.566 35.217 131.006 35.7705C132.768 36.462 134.062 37.2705 134.894 38.1975C135.723 39.1215 136.137 40.278 136.137 41.658Z" fill="white"/>
<path d="M146.982 35.2619H143.366V42.2504C143.366 44.0279 144.003 44.9159 145.28 44.9159C145.866 44.9159 146.352 44.8664 146.737 44.7674L146.828 47.1959C146.182 47.4314 145.331 47.5499 144.277 47.5499C142.982 47.5499 141.969 47.1644 141.238 46.3949C140.511 45.6239 140.145 44.3309 140.145 42.5144V35.2589H137.991V32.8589H140.145V30.2234L143.366 29.2754V32.8589H146.982V35.2619Z" fill="white"/>
<path d="M163.294 39.9404C163.294 42.1529 162.645 43.9694 161.349 45.3899C159.991 46.8524 158.188 47.5814 155.94 47.5814C153.774 47.5814 152.049 46.8809 150.763 45.4799C149.477 44.0789 148.834 42.3104 148.834 40.1789C148.834 37.9484 149.495 36.1214 150.823 34.7009C152.148 33.2789 153.935 32.5679 156.183 32.5679C158.349 32.5679 160.092 33.2684 161.408 34.6709C162.666 36.0314 163.294 37.7879 163.294 39.9404ZM159.891 40.0439C159.891 38.7164 159.6 37.5779 159.011 36.6284C158.323 35.4794 157.34 34.9064 156.066 34.9064C154.748 34.9064 153.746 35.4809 153.058 36.6284C152.469 37.5794 152.178 38.7359 152.178 40.1039C152.178 41.4314 152.469 42.5699 153.058 43.5179C153.768 44.6669 154.758 45.2399 156.037 45.2399C157.289 45.2399 158.272 44.6549 158.982 43.4879C159.586 42.5204 159.891 41.3699 159.891 40.0439Z" fill="white"/>
<path d="M173.955 35.6744C173.631 35.6159 173.285 35.5859 172.922 35.5859C171.768 35.5859 170.875 36.0104 170.248 36.8609C169.702 37.6109 169.428 38.5589 169.428 39.7034V47.2559H166.149L166.18 37.3949C166.18 35.7359 166.138 34.2254 166.057 32.8634H168.914L169.034 35.6174H169.125C169.471 34.6709 170.017 33.9089 170.765 33.3374C171.495 32.8229 172.285 32.5664 173.135 32.5664C173.438 32.5664 173.712 32.5874 173.955 32.6249V35.6744Z" fill="white"/>
<path d="M188.625 39.378C188.625 39.951 188.586 40.434 188.505 40.8285H178.665C178.703 42.2505 179.178 43.338 180.092 44.088C180.922 44.7585 181.994 45.0945 183.311 45.0945C184.768 45.0945 186.097 44.868 187.292 44.4135L187.806 46.6335C186.409 47.2275 184.76 47.523 182.857 47.523C180.568 47.523 178.771 46.866 177.463 45.5535C176.158 44.241 175.505 42.4785 175.505 40.2675C175.505 38.097 176.112 36.2895 177.329 34.848C178.603 33.309 180.325 32.5396 182.491 32.5396C184.618 32.5396 186.229 33.309 187.323 34.848C188.189 36.0705 188.625 37.5825 188.625 39.378ZM185.497 38.5485C185.518 37.6005 185.305 36.7815 184.86 36.09C184.292 35.2005 183.42 34.7565 182.246 34.7565C181.174 34.7565 180.302 35.1901 179.635 36.0601C179.089 36.7515 178.765 37.581 178.665 38.547H185.497V38.5485Z" fill="white"/>
</svg>
