<svg width="208" height="60" viewBox="0 0 208 60" fill="none" xmlns="http://www.w3.org/2000/svg">
<path d="M200 60H7.69231C3.46346 60 0 56.6231 0 52.5V7.5C0 3.37688 3.46346 4.76837e-06 7.69231 4.76837e-06H200C204.229 4.76837e-06 207.692 3.37688 207.692 7.5V52.5C207.692 56.6231 204.229 60 200 60Z" fill="black"/>
<path d="M200 1.20188C203.562 1.20188 206.46 4.0275 206.46 7.5V52.5C206.46 55.9725 203.562 58.7981 200 58.7981H7.69231C4.13077 58.7981 1.23269 55.9725 1.23269 52.5V7.5C1.23269 4.0275 4.13077 1.20188 7.69231 1.20188H200ZM200 4.76837e-06H7.69231C3.46346 4.76837e-06 0 3.37688 0 7.5V52.5C0 56.6231 3.46346 60 7.69231 60H200C204.229 60 207.692 56.6231 207.692 52.5V7.5C207.692 3.37688 204.229 4.76837e-06 200 4.76837e-06Z" fill="#A6A6A6"/>
<path d="M16.0539 11.3083C15.6019 11.7695 15.3404 12.4877 15.3404 13.4177V46.5902C15.3404 47.5202 15.6019 48.2383 16.0539 48.6995L16.1654 48.8008L35.2308 30.2195V29.7808L16.1654 11.1995L16.0539 11.3083Z" fill="url(#paint0_linear_1_404)"/>
<path d="M41.5788 36.4163L35.2307 30.2194V29.7806L41.5865 23.5838L41.7288 23.6644L49.2557 27.84C51.4038 29.025 51.4038 30.975 49.2557 32.1675L41.7288 36.3356L41.5788 36.4163Z" fill="url(#paint1_linear_1_404)"/>
<path d="M41.7288 36.3357L35.2308 30.0001L16.0538 48.6995C16.7673 49.4307 17.9308 49.5188 19.2538 48.7876L41.7288 36.3357Z" fill="url(#paint2_linear_1_404)"/>
<path d="M41.7288 23.6644L19.2538 11.2125C17.9308 10.4888 16.7673 10.5769 16.0538 11.3081L35.2308 30L41.7288 23.6644Z" fill="url(#paint3_linear_1_404)"/>
<path d="M72.95 15.3655C72.95 16.618 72.5654 17.6211 71.8077 18.3692C70.9365 19.2561 69.8019 19.7024 68.4115 19.7024C67.0827 19.7024 65.948 19.2486 65.0173 18.3542C64.0846 17.4467 63.6192 16.333 63.6192 14.9999C63.6192 13.6667 64.0846 12.553 65.0173 11.653C65.948 10.7511 67.0827 10.2974 68.4115 10.2974C69.073 10.2974 69.7038 10.4305 70.3057 10.678C70.9057 10.9274 71.3942 11.2649 71.748 11.6811L70.9442 12.4724C70.3269 11.7617 69.4865 11.4111 68.4115 11.4111C67.4423 11.4111 66.6019 11.7411 65.8884 12.4067C65.1827 13.0742 64.8288 13.9386 64.8288 14.9999C64.8288 16.0611 65.1827 16.933 65.8884 17.6005C66.6019 18.2586 67.4423 18.5961 68.4115 18.5961C69.4404 18.5961 70.3057 18.2586 70.9884 17.593C71.4384 17.1524 71.6942 16.5449 71.7615 15.7686H68.4115V14.6849H72.8807C72.9346 14.9192 72.95 15.1461 72.95 15.3655Z" fill="white" stroke="white" stroke-width="0.16" stroke-miterlimit="10"/>
<path d="M80.0403 11.608H75.8423V14.458H79.6269V15.5418H75.8423V18.3918H80.0403V19.4962H74.6538V10.5037H80.0403V11.608Z" fill="white" stroke="white" stroke-width="0.16" stroke-miterlimit="10"/>
<path d="M85.0442 19.4962H83.8557V11.608H81.2807V10.5037H87.6211V11.608H85.0442V19.4962Z" fill="white" stroke="white" stroke-width="0.16" stroke-miterlimit="10"/>
<path d="M92.2096 19.4962V10.5037H93.3961V19.4962H92.2096Z" fill="white" stroke="white" stroke-width="0.16" stroke-miterlimit="10"/>
<path d="M98.6557 19.4962H97.4768V11.608H94.8922V10.5037H101.24V11.608H98.6557V19.4962Z" fill="white" stroke="white" stroke-width="0.16" stroke-miterlimit="10"/>
<path d="M113.244 18.3392C112.335 19.2486 111.208 19.7024 109.863 19.7024C108.512 19.7024 107.385 19.2486 106.475 18.3392C105.567 17.4317 105.115 16.318 105.115 14.9999C105.115 13.6817 105.567 12.568 106.475 11.6605C107.385 10.7511 108.512 10.2974 109.863 10.2974C111.2 10.2974 112.327 10.7511 113.237 11.668C114.152 12.583 114.604 13.6892 114.604 14.9999C114.604 16.318 114.152 17.4317 113.244 18.3392ZM107.354 17.5855C108.038 18.2586 108.871 18.5961 109.863 18.5961C110.848 18.5961 111.688 18.2586 112.365 17.5855C113.048 16.9124 113.394 16.048 113.394 14.9999C113.394 13.9517 113.048 13.0874 112.365 12.4142C111.688 11.7411 110.848 11.4036 109.863 11.4036C108.871 11.4036 108.038 11.7411 107.354 12.4142C106.671 13.0874 106.325 13.9517 106.325 14.9999C106.325 16.048 106.671 16.9124 107.354 17.5855Z" fill="white" stroke="white" stroke-width="0.16" stroke-miterlimit="10"/>
<path d="M116.271 19.4962V10.5037H117.713L122.198 17.4974H122.25L122.198 15.7687V10.5037H123.385V19.4962H122.146L117.45 12.1574H117.398L117.45 13.8937V19.4962H116.271Z" fill="white" stroke="white" stroke-width="0.16" stroke-miterlimit="10"/>
<path d="M104.823 32.6287C101.21 32.6287 98.2577 35.31 98.2577 39.0093C98.2577 42.6787 101.21 45.3881 104.823 45.3881C108.444 45.3881 111.396 42.6787 111.396 39.0093C111.396 35.31 108.444 32.6287 104.823 32.6287ZM104.823 42.8756C102.84 42.8756 101.135 41.28 101.135 39.0093C101.135 36.7087 102.84 35.1412 104.823 35.1412C106.806 35.1412 108.519 36.7087 108.519 39.0093C108.519 41.28 106.806 42.8756 104.823 42.8756ZM90.4981 32.6287C86.8769 32.6287 83.9327 35.31 83.9327 39.0093C83.9327 42.6787 86.8769 45.3881 90.4981 45.3881C94.1173 45.3881 97.0635 42.6787 97.0635 39.0093C97.0635 35.31 94.1173 32.6287 90.4981 32.6287ZM90.4981 42.8756C88.5135 42.8756 86.8019 41.28 86.8019 39.0093C86.8019 36.7087 88.5135 35.1412 90.4981 35.1412C92.4808 35.1412 94.1866 36.7087 94.1866 39.0093C94.1866 41.28 92.4808 42.8756 90.4981 42.8756ZM73.4519 34.5843V37.2956H80.0923C79.8981 38.8106 79.3789 39.9243 78.5827 40.7006C77.6135 41.6381 76.1039 42.6787 73.4519 42.6787C69.3654 42.6787 66.1654 39.4631 66.1654 35.4787C66.1654 31.4943 69.3654 28.2787 73.4519 28.2787C75.6616 28.2787 77.2693 29.1206 78.4558 30.2118L80.4154 28.3012C78.7558 26.7562 76.5481 25.5693 73.4519 25.5693C67.8481 25.5693 63.1385 30.015 63.1385 35.4787C63.1385 40.9425 67.8481 45.3881 73.4519 45.3881C76.4808 45.3881 78.7558 44.4206 80.5442 42.6056C82.3769 40.8187 82.9481 38.3062 82.9481 36.2775C82.9481 35.6475 82.8943 35.0681 82.7981 34.5843H73.4519ZM143.156 36.6862C142.615 35.2593 140.948 32.6287 137.552 32.6287C134.187 32.6287 131.385 35.2143 131.385 39.0093C131.385 42.5831 134.158 45.3881 137.875 45.3881C140.881 45.3881 142.615 43.6012 143.329 42.5606L141.098 41.1112C140.354 42.1725 139.34 42.8756 137.875 42.8756C136.419 42.8756 135.375 42.225 134.706 40.9425L143.458 37.4118L143.156 36.6862ZM134.233 38.8106C134.158 36.3506 136.192 35.0906 137.65 35.0906C138.792 35.0906 139.762 35.6475 140.085 36.4443L134.233 38.8106ZM127.119 45H129.996V26.25H127.119V45ZM122.408 34.05H122.312C121.665 33.3037 120.433 32.6287 118.871 32.6287C115.594 32.6287 112.598 35.4337 112.598 39.03C112.598 42.6056 115.594 45.3881 118.871 45.3881C120.433 45.3881 121.665 44.7075 122.312 43.9387H122.408V44.8537C122.408 47.2931 121.071 48.6037 118.915 48.6037C117.158 48.6037 116.067 47.3662 115.617 46.3256L113.115 47.3437C113.837 49.035 115.746 51.1162 118.915 51.1162C122.288 51.1162 125.135 49.1812 125.135 44.4731V33.0168H122.408V34.05ZM119.117 42.8756C117.135 42.8756 115.475 41.2575 115.475 39.03C115.475 36.7818 117.135 35.1412 119.117 35.1412C121.071 35.1412 122.612 36.7818 122.612 39.03C122.612 41.2575 121.071 42.8756 119.117 42.8756ZM156.625 26.25H149.744V45H152.613V37.8956H156.625C159.812 37.8956 162.937 35.6475 162.937 32.0718C162.937 28.4981 159.804 26.25 156.625 26.25ZM156.7 35.2875H152.613V28.8581H156.7C158.842 28.8581 160.065 30.5925 160.065 32.0718C160.065 33.5231 158.842 35.2875 156.7 35.2875ZM174.437 32.5931C172.363 32.5931 170.208 33.4856 169.321 35.4637L171.867 36.5043C172.415 35.4637 173.423 35.1262 174.488 35.1262C175.977 35.1262 177.487 35.9981 177.51 37.5375V37.7343C176.99 37.4418 175.879 37.0087 174.512 37.0087C171.769 37.0087 168.975 38.4806 168.975 41.2275C168.975 43.74 171.221 45.3581 173.746 45.3581C175.677 45.3581 176.742 44.5087 177.412 43.5206H177.51V44.97H180.281V37.7775C180.281 34.4531 177.735 32.5931 174.437 32.5931ZM174.09 42.8681C173.152 42.8681 171.844 42.4143 171.844 41.28C171.844 39.8287 173.475 39.2718 174.887 39.2718C176.15 39.2718 176.742 39.5437 177.51 39.9018C177.285 41.6381 175.752 42.8681 174.09 42.8681ZM190.377 33.0037L187.079 41.1318H186.981L183.571 33.0037H180.477L185.6 44.3625L182.677 50.6831H185.675L193.569 33.0037H190.377ZM164.513 45H167.39V26.25H164.513V45Z" fill="white"/>
<defs>
<linearGradient id="paint0_linear_1_404" x1="33.538" y1="46.9356" x2="8.37246" y2="21.1248" gradientUnits="userSpaceOnUse">
<stop stop-color="#00A0FF"/>
<stop offset="0.0066" stop-color="#00A1FF"/>
<stop offset="0.2601" stop-color="#00BEFF"/>
<stop offset="0.5122" stop-color="#00D2FF"/>
<stop offset="0.7604" stop-color="#00DFFF"/>
<stop offset="1" stop-color="#00E3FF"/>
</linearGradient>
<linearGradient id="paint1_linear_1_404" x1="52.0529" y1="29.9979" x2="14.8269" y2="29.9979" gradientUnits="userSpaceOnUse">
<stop stop-color="#FFE000"/>
<stop offset="0.4087" stop-color="#FFBD00"/>
<stop offset="0.7754" stop-color="#FFA500"/>
<stop offset="1" stop-color="#FF9C00"/>
</linearGradient>
<linearGradient id="paint2_linear_1_404" x1="38.1954" y1="26.5559" x2="4.06886" y2="-8.44561" gradientUnits="userSpaceOnUse">
<stop stop-color="#FF3A44"/>
<stop offset="1" stop-color="#C31162"/>
</linearGradient>
<linearGradient id="paint3_linear_1_404" x1="11.2266" y1="59.7357" x2="26.4656" y2="44.1061" gradientUnits="userSpaceOnUse">
<stop stop-color="#32A071"/>
<stop offset="0.0685" stop-color="#2DA771"/>
<stop offset="0.4762" stop-color="#15CF74"/>
<stop offset="0.8009" stop-color="#06E775"/>
<stop offset="1" stop-color="#00F076"/>
</linearGradient>
</defs>
</svg>
