<svg width="320" height="50" viewBox="0 0 320 50" fill="none" xmlns="http://www.w3.org/2000/svg">
<g clip-path="url(#clip0_1_196)">
<path d="M44.0509 49.4048H33.4147C31.879 49.402 30.407 48.7908 29.321 47.705C28.2351 46.6191 27.6239 45.1472 27.6211 43.6116C27.6209 41.6036 27.8948 39.6051 28.4352 37.6712C29.2229 34.8104 29.3144 31.8027 28.7021 28.8993C28.0898 25.9959 26.7915 23.2813 24.9155 20.9822L24.7578 20.82L24.539 21.0328C20.6072 25.6459 19.2187 31.7917 20.826 37.509C21.3845 39.4946 21.6679 41.5475 21.6683 43.6101C21.6659 45.146 21.0548 46.6183 19.9689 47.7044C18.8829 48.7906 17.4107 49.402 15.8747 49.4048H5.35754C3.93663 49.4048 2.57392 48.8404 1.56919 47.8357C0.564454 46.831 0 45.4684 0 44.0476V5.79317C0.00275394 4.25758 0.614033 2.78567 1.69994 1.69984C2.78586 0.614007 4.25788 0.0027714 5.79358 1.76685e-05H8.57058C11.1961 -0.00489656 13.7197 1.01548 15.6038 2.84377L15.6708 2.91073L24.8664 12.381L34.7615 2.70835C36.6322 0.965295 39.0949 -0.00268906 41.6519 1.76685e-05H43.6149C45.1506 0.0027714 46.6226 0.614007 47.7085 1.69984C48.7944 2.78567 49.4057 4.25758 49.4084 5.79317V44.0476C49.4084 45.4684 48.844 46.831 47.8392 47.8357C46.8345 48.8404 45.4718 49.4048 44.0509 49.4048ZM33.5754 43.4524H43.4556V5.9524H41.6519C40.6106 5.95134 39.6068 6.34114 38.8392 7.04466L29.02 16.6518L29.3668 17.0104L29.4456 17.1057C31.958 20.1494 33.6996 23.7538 34.5229 27.6135C35.3462 31.4732 35.2269 35.4745 34.1752 39.2783C33.7928 40.6373 33.5911 42.0407 33.5754 43.4524ZM5.95282 43.4524H15.714C15.7005 41.985 15.4923 40.5258 15.0949 39.1131C12.9355 31.4301 14.8121 23.1801 20.1131 17.0447L20.195 16.9494L20.6102 16.5432L11.4369 7.09525C10.6637 6.36026 9.63735 5.95102 8.57058 5.9524H5.95282V43.4524Z" fill="url(#paint0_linear_1_196)"/>
<path d="M56.3308 18.1799C56.6403 18.1753 56.9474 18.2343 57.2331 18.3533C57.5188 18.4724 57.777 18.6489 57.9916 18.8719C58.2133 19.088 58.3887 19.3469 58.5071 19.6329C58.6256 19.919 58.6846 20.2261 58.6807 20.5356C58.6763 21.1565 58.4271 21.7506 57.987 22.1886C57.547 22.6267 56.9517 22.8733 56.3308 22.8749C56.0252 22.878 55.7222 22.8183 55.4406 22.6995C55.159 22.5807 54.9048 22.4054 54.6938 22.1844C54.472 21.9713 54.2961 21.7151 54.1768 21.4316C54.0576 21.148 53.9975 20.8432 54.0002 20.5356C53.9957 20.2253 54.0544 19.9174 54.1729 19.6305C54.2914 19.3437 54.4671 19.0841 54.6893 18.8674C54.9011 18.6464 55.1562 18.4713 55.4386 18.3531C55.7209 18.2348 56.0247 18.1759 56.3308 18.1799ZM54.9155 27.2945H57.7639V49.43H54.9155V27.2945Z" fill="white"/>
<path d="M63.2577 18.75H66.1061V49.4301H63.2577V18.75Z" fill="white"/>
<path d="M71.5996 18.75H74.448V49.4301H71.5996V18.75Z" fill="white"/>
<path d="M81.3557 18.1802C81.979 18.1802 82.5767 18.4277 83.0174 18.8684C83.458 19.309 83.7056 19.9067 83.7056 20.5299C83.7056 21.153 83.458 21.7507 83.0174 22.1914C82.5767 22.632 81.979 22.8796 81.3557 22.8796C80.7371 22.8733 80.1458 22.624 79.7095 22.1855C79.2731 21.7469 79.0268 21.1544 79.0237 20.5358C79.0188 20.2255 79.0774 19.9174 79.1959 19.6305C79.3144 19.3437 79.4903 19.0841 79.7128 18.8677C79.9248 18.6464 80.1801 18.4712 80.4627 18.353C80.7454 18.2347 81.0494 18.1759 81.3557 18.1802ZM79.9419 27.2947H82.7904V49.4302H79.9419V27.2947Z" fill="white"/>
<path d="M99.1899 26.7246C102.6 26.7246 105.427 27.9592 107.673 30.4285C109.706 32.6805 110.722 35.3456 110.722 38.424C110.722 41.5024 109.645 44.2048 107.491 46.5311C105.339 48.8436 102.572 49.9999 99.1899 49.9999C95.7918 49.9999 93.0138 48.8436 90.8559 46.5311C88.698 44.2186 87.621 41.5163 87.625 38.424C87.625 35.3585 88.6439 32.6998 90.6818 30.4478C92.93 27.9657 95.766 26.7246 99.1899 26.7246ZM99.1794 29.5118C96.8102 29.5118 94.7763 30.3868 93.0778 32.1368C91.3793 33.8868 90.5285 36.0029 90.5255 38.485C90.5174 40.0529 90.9186 41.5958 91.6893 42.9612C92.4217 44.2989 93.5101 45.4078 94.8339 46.1651C96.1638 46.9058 97.6609 47.2945 99.1832 47.2945C100.705 47.2945 102.203 46.9058 103.532 46.1651C104.857 45.4082 105.945 44.2992 106.677 42.9612C107.448 41.5958 107.849 40.0529 107.841 38.485C107.841 36.0049 106.987 33.8888 105.278 32.1368C103.57 30.3848 101.537 29.5098 99.1794 29.5118Z" fill="white"/>
<path d="M115.996 27.2947H118.845V31.262C119.983 29.7441 121.245 28.6082 122.629 27.8542C124.014 27.1006 125.569 26.7119 127.146 26.7248C128.707 26.6981 130.241 27.1374 131.551 27.9867C132.815 28.8091 133.802 29.9929 134.384 31.384C134.995 32.8086 135.3 35.0264 135.3 38.0373V49.4301H132.45V38.8647C132.45 36.3161 132.344 34.6142 132.133 33.759C131.802 32.2937 131.169 31.1915 130.234 30.4525C129.298 29.7134 128.077 29.3438 126.571 29.3438C124.872 29.335 123.228 29.9419 121.941 31.0522C120.613 32.1379 119.668 33.6213 119.245 35.2843C118.974 36.3835 118.839 38.3909 118.839 41.3066V49.4242H115.996V27.2947Z" fill="white"/>
<path d="M163.465 27.2948V49.4302H160.656V45.6266C159.466 47.078 158.126 48.1693 156.638 48.9004C155.121 49.6399 153.453 50.0159 151.766 49.9986C148.632 49.9986 145.956 48.8627 143.738 46.5909C141.521 44.3191 140.412 41.5557 140.412 38.3007C140.412 35.1132 141.531 32.385 143.77 30.1162C146.008 27.8473 148.7 26.7144 151.846 26.7174C153.561 26.6929 155.256 27.0916 156.781 27.8781C158.253 28.6509 159.543 29.8106 160.65 31.3573V27.2948H163.465ZM152.081 29.4718C150.532 29.4602 149.009 29.8678 147.673 30.6514C146.337 31.4349 145.237 32.5653 144.491 33.9227C143.711 35.2838 143.301 36.826 143.302 38.3951C143.304 39.9642 143.718 41.5054 144.502 42.8647C145.256 44.2418 146.369 45.3893 147.722 46.1861C149.034 46.9695 150.534 47.3811 152.062 47.3766C153.616 47.3776 155.144 46.9712 156.492 46.198C157.843 45.457 158.959 44.3516 159.713 43.0076C160.477 41.6211 160.866 40.0592 160.841 38.4763C160.841 35.9158 159.998 33.7749 158.311 32.0537C156.624 30.3325 154.548 29.4718 152.081 29.4718Z" fill="white"/>
<path d="M170.861 18.1799C171.171 18.1753 171.478 18.2343 171.764 18.3533C172.05 18.4724 172.308 18.6489 172.522 18.8719C172.745 19.0885 172.92 19.3482 173.039 19.635C173.157 19.9218 173.216 20.2298 173.211 20.5401C173.207 21.161 172.958 21.755 172.518 22.1931C172.078 22.6312 171.482 22.8778 170.861 22.8794C170.556 22.8824 170.253 22.8228 169.971 22.704C169.69 22.5852 169.436 22.4099 169.224 22.1889C169.003 21.9753 168.828 21.719 168.71 21.4355C168.591 21.152 168.532 20.8473 168.535 20.5401C168.531 20.2298 168.59 19.9218 168.708 19.635C168.827 19.3482 169.002 19.0885 169.224 18.8719C169.435 18.6506 169.69 18.475 169.971 18.356C170.253 18.237 170.556 18.177 170.861 18.1799ZM169.448 27.2945H172.296V49.43H169.448V27.2945Z" fill="white"/>
<path d="M177.139 27.2945H180.048V30.5297C180.916 29.2549 181.831 28.302 182.794 27.671C183.682 27.0635 184.73 26.734 185.806 26.7246C186.592 26.7246 187.435 26.9756 188.336 27.4776L186.848 29.8794C186.376 29.6516 185.864 29.5201 185.342 29.4925C184.392 29.4925 183.477 29.8823 182.596 30.6621C181.715 31.4419 181.043 32.6522 180.581 34.2931C180.228 35.555 180.052 38.1051 180.053 41.9434V49.43H177.143L177.139 27.2945Z" fill="white"/>
<path d="M209.39 42.0862L211.79 43.3466C211.003 44.8932 210.094 46.1412 209.061 47.0907C208.049 48.028 206.867 48.7634 205.578 49.2573C204.177 49.7724 202.693 50.0247 201.2 50.0014C197.589 50.0014 194.765 48.8178 192.728 46.4508C190.691 44.0837 189.672 41.4086 189.672 38.4255C189.645 35.6999 190.558 33.0481 192.259 30.918C194.442 28.1234 197.369 26.7261 201.039 26.7261C204.81 26.7261 207.824 28.1571 210.082 31.0192C211.683 33.0401 212.498 35.5629 212.525 38.5877H192.6C192.654 41.1591 193.476 43.2668 195.064 44.9106C196.653 46.5545 198.616 47.3764 200.953 47.3764C202.076 47.3776 203.189 47.1786 204.242 46.7886C205.236 46.4383 206.157 45.9098 206.961 45.229C207.708 44.5792 208.518 43.5316 209.39 42.0862ZM209.39 36.1249C209.009 34.605 208.455 33.3913 207.729 32.4835C206.952 31.5365 205.965 30.7839 204.846 30.2856C203.667 29.7326 202.38 29.4475 201.078 29.4508C198.903 29.4508 197.036 30.1497 195.475 31.5475C194.333 32.5644 193.471 34.0902 192.889 36.1249H209.39Z" fill="white"/>
<path d="M238.742 19.5029H244.519L256.03 49.43H250.11L247.768 43.2663H235.555L233.121 49.43H227.199L238.742 19.5029ZM241.666 27.4375L237.648 37.7053H245.654L241.666 27.4375Z" fill="white"/>
<path d="M261.992 18.1798C262.46 18.174 262.924 18.265 263.355 18.4471C263.787 18.6292 264.176 18.8984 264.498 19.2379C264.836 19.5725 265.103 19.9722 265.282 20.413C265.461 20.8537 265.549 21.3262 265.54 21.8019C265.546 22.2721 265.457 22.7387 265.278 23.1736C265.099 23.6084 264.834 24.0024 264.498 24.3316C264.179 24.6662 263.795 24.9314 263.368 25.1107C262.942 25.2899 262.484 25.3793 262.022 25.3733C261.549 25.3808 261.08 25.2896 260.644 25.1057C260.208 24.9217 259.816 24.649 259.492 24.3048C259.153 23.9647 258.886 23.5598 258.707 23.1141C258.528 22.6684 258.44 22.1912 258.45 21.7111C258.449 20.7736 258.82 19.874 259.482 19.2102C260.144 18.5463 261.042 18.1725 261.98 18.1709L261.992 18.1798ZM259.215 27.2944H264.769V49.4298H259.215V27.2944Z" fill="white"/>
<path d="M283.366 30.3868L279.929 33.8258C278.531 32.4419 277.262 31.7499 276.123 31.7499C275.499 31.7499 275.011 31.8823 274.659 32.1472C274.496 32.2556 274.363 32.4023 274.271 32.5743C274.178 32.7464 274.13 32.9385 274.129 33.1338C274.133 33.4412 274.253 33.7358 274.465 33.9582C274.689 34.2082 275.241 34.5505 276.123 34.985L278.158 36.0029C280.301 37.0604 281.772 38.1388 282.573 39.238C283.374 40.3372 283.774 41.6269 283.774 43.107C283.793 44.036 283.609 44.958 283.235 45.8085C282.86 46.659 282.305 47.4175 281.607 48.0311C280.162 49.3466 278.227 50.0044 275.803 50.0044C272.574 50.0044 269.994 48.7429 268.065 46.2201L271.487 42.4999C272.128 43.2516 272.905 43.876 273.776 44.3407C274.651 44.8089 275.428 45.043 276.107 45.043C276.839 45.043 277.429 44.867 277.876 44.5148C278.324 44.1626 278.547 43.7554 278.547 43.2931C278.547 42.4389 277.74 41.6051 276.126 40.7916L274.254 39.8555C270.673 38.052 268.883 35.7935 268.883 33.0803C268.883 31.3303 269.558 29.8347 270.907 28.5936C272.256 27.3526 273.983 26.732 276.086 26.732C277.503 26.7251 278.901 27.0533 280.167 27.6897C281.433 28.3262 282.53 29.2529 283.369 30.3942L283.366 30.3868Z" fill="white"/>
<path d="M287.539 18.75H293.095V49.4301H287.539V18.75Z" fill="white"/>
<path d="M319.979 39.9702H302.136C302.394 41.5436 303.082 42.7946 304.2 43.7231C305.318 44.6517 306.746 45.1165 308.483 45.1175C309.476 45.1323 310.462 44.9473 311.383 44.5733C312.303 44.1992 313.139 43.644 313.84 42.9404L318.519 45.1368C317.352 46.7936 315.956 48.0178 314.328 48.8094C312.701 49.6011 310.767 49.9979 308.524 49.9999C305.052 49.9999 302.224 48.9047 300.042 46.7142C297.859 44.5237 296.768 41.7807 296.768 38.485C296.768 35.112 297.859 32.3075 300.042 30.0714C302.224 27.8352 304.953 26.7197 308.227 26.7246C311.712 26.7246 314.547 27.8402 316.73 30.0714C318.914 32.3025 320.005 35.2494 320.004 38.9121L319.979 39.9702ZM314.424 35.5952C314.065 34.3746 313.3 33.3137 312.254 32.5892C311.157 31.8105 309.838 31.4042 308.493 31.43C307.028 31.4025 305.595 31.8603 304.417 32.7321C303.683 33.2737 303.004 34.2296 302.38 35.5996L314.424 35.5952Z" fill="white"/>
</g>
<defs>
<linearGradient id="paint0_linear_1_196" x1="1.63554" y1="1.76341" x2="47.3498" y2="47.4811" gradientUnits="userSpaceOnUse">
<stop stop-color="#D32053"/>
<stop offset="1" stop-color="#460BC6"/>
</linearGradient>
<clipPath id="clip0_1_196">
<rect width="320" height="50" fill="white"/>
</clipPath>
</defs>
</svg>
