<svg width="1145" height="180" viewBox="0 0 1145 180" fill="none" xmlns="http://www.w3.org/2000/svg">
<g opacity="0.3">
<mask id="path-1-outside-1_1_256" maskUnits="userSpaceOnUse" x="-1" y="-1" width="1147" height="182" fill="black">
<rect fill="white" x="-1" y="-1" width="1147" height="182"/>
<path d="M0.538352 9.72727H44.1534L90.2188 122.114H92.179L138.244 9.72727H181.859V177H147.555V68.1257H146.167L102.879 176.183H79.5192L36.2308 67.7173H34.8423V177H0.538352V9.72727ZM210.344 177V51.5455H245.138V177H210.344ZM227.823 35.3736C222.65 35.3736 218.212 33.6584 214.509 30.228C210.861 26.7431 209.037 22.5776 209.037 17.7315C209.037 12.9399 210.861 8.82883 214.509 5.39844C218.212 1.91358 222.65 0.171156 227.823 0.171156C232.995 0.171156 237.406 1.91358 241.054 5.39844C244.757 8.82883 246.608 12.9399 246.608 17.7315C246.608 22.5776 244.757 26.7431 241.054 30.228C237.406 33.6584 232.995 35.3736 227.823 35.3736ZM307.804 9.72727V177H273.01V9.72727H307.804ZM370.47 9.72727V177H335.676V9.72727H370.47ZM398.342 177V51.5455H433.136V177H398.342ZM415.821 35.3736C410.648 35.3736 406.21 33.6584 402.507 30.228C398.859 26.7431 397.035 22.5776 397.035 17.7315C397.035 12.9399 398.859 8.82883 402.507 5.39844C406.21 1.91358 410.648 0.171156 415.821 0.171156C420.993 0.171156 425.404 1.91358 429.052 5.39844C432.755 8.82883 434.606 12.9399 434.606 17.7315C434.606 22.5776 432.755 26.7431 429.052 30.228C425.404 33.6584 420.993 35.3736 415.821 35.3736ZM517.691 179.45C505.004 179.45 494.032 176.755 484.776 171.364C475.574 165.919 468.468 158.351 463.458 148.658C458.449 138.912 455.944 127.613 455.944 114.763C455.944 101.804 458.449 90.4777 463.458 80.7855C468.468 71.0388 475.574 63.4702 484.776 58.0795C494.032 52.6345 505.004 49.9119 517.691 49.9119C530.378 49.9119 541.323 52.6345 550.525 58.0795C559.782 63.4702 566.915 71.0388 571.924 80.7855C576.934 90.4777 579.438 101.804 579.438 114.763C579.438 127.613 576.934 138.912 571.924 148.658C566.915 158.351 559.782 165.919 550.525 171.364C541.323 176.755 530.378 179.45 517.691 179.45ZM517.855 152.497C523.626 152.497 528.445 150.864 532.311 147.597C536.177 144.275 539.09 139.756 541.051 134.038C543.065 128.321 544.073 121.814 544.073 114.518C544.073 107.221 543.065 100.714 541.051 94.9972C539.09 89.2798 536.177 84.7604 532.311 81.4389C528.445 78.1174 523.626 76.4567 517.855 76.4567C512.028 76.4567 507.128 78.1174 503.153 81.4389C499.232 84.7604 496.265 89.2798 494.25 94.9972C492.29 100.714 491.31 107.221 491.31 114.518C491.31 121.814 492.29 128.321 494.25 134.038C496.265 139.756 499.232 144.275 503.153 147.597C507.128 150.864 512.028 152.497 517.855 152.497ZM636.857 104.472V177H602.063V51.5455H635.223V73.6797H636.693C639.47 66.3833 644.126 60.6115 650.66 56.3643C657.194 52.0627 665.117 49.9119 674.428 49.9119C683.14 49.9119 690.736 51.8177 697.215 55.6293C703.695 59.4408 708.732 64.8859 712.325 71.9645C715.919 78.9886 717.716 87.374 717.716 97.1207V177H682.922V103.328C682.977 95.6506 681.016 89.661 677.041 85.3594C673.066 81.0033 667.594 78.8253 660.624 78.8253C655.942 78.8253 651.803 79.8326 648.21 81.8473C644.67 83.862 641.893 86.8023 639.879 90.6683C637.919 94.4799 636.911 99.081 636.857 104.472ZM780.913 179.369C772.909 179.369 765.776 177.98 759.514 175.203C753.252 172.372 748.297 168.206 744.649 162.707C741.055 157.153 739.258 150.237 739.258 141.961C739.258 134.991 740.538 129.138 743.097 124.401C745.656 119.663 749.141 115.852 753.551 112.966C757.962 110.08 762.971 107.902 768.58 106.432C774.243 104.962 780.178 103.927 786.385 103.328C793.682 102.566 799.562 101.858 804.027 101.205C808.492 100.497 811.732 99.4621 813.747 98.1009C815.761 96.7396 816.769 94.7249 816.769 92.0568V91.5668C816.769 86.3939 815.135 82.3918 811.868 79.5604C808.656 76.7289 804.082 75.3132 798.147 75.3132C791.885 75.3132 786.903 76.7017 783.2 79.4787C779.497 82.2012 777.047 85.6316 775.849 89.7699L743.669 87.1562C745.302 79.5331 748.515 72.9446 753.306 67.3906C758.098 61.7822 764.278 57.4806 771.847 54.4858C779.47 51.4366 788.291 49.9119 798.31 49.9119C805.28 49.9119 811.95 50.7287 818.321 52.3622C824.746 53.9957 830.436 56.5277 835.391 59.9581C840.4 63.3885 844.348 67.799 847.234 73.1896C850.12 78.5258 851.563 84.9238 851.563 92.3835V177H818.566V159.603H817.586C815.571 163.523 812.876 166.981 809.5 169.976C806.124 172.916 802.067 175.23 797.33 176.918C792.593 178.552 787.12 179.369 780.913 179.369ZM790.877 155.356C795.996 155.356 800.515 154.348 804.436 152.334C808.356 150.265 811.433 147.488 813.665 144.003C815.898 140.518 817.014 136.57 817.014 132.16V118.847C815.925 119.554 814.427 120.208 812.522 120.807C810.67 121.351 808.574 121.869 806.233 122.359C803.891 122.794 801.55 123.203 799.208 123.584C796.867 123.911 794.743 124.21 792.838 124.482C788.754 125.081 785.187 126.034 782.138 127.341C779.089 128.648 776.72 130.417 775.032 132.65C773.344 134.828 772.5 137.55 772.5 140.817C772.5 145.555 774.216 149.176 777.646 151.68C781.131 154.131 785.541 155.356 790.877 155.356ZM878.557 177V51.5455H913.351V177H878.557ZM896.036 35.3736C890.863 35.3736 886.425 33.6584 882.722 30.228C879.074 26.7431 877.25 22.5776 877.25 17.7315C877.25 12.9399 879.074 8.82883 882.722 5.39844C886.425 1.91358 890.863 0.171156 896.036 0.171156C901.208 0.171156 905.619 1.91358 909.267 5.39844C912.97 8.82883 914.821 12.9399 914.821 17.7315C914.821 22.5776 912.97 26.7431 909.267 30.228C905.619 33.6584 901.208 35.3736 896.036 35.3736ZM941.223 177V51.5455H974.955V73.4347H976.262C978.549 65.6482 982.388 59.7675 987.778 55.7926C993.169 51.7633 999.376 49.7486 1006.4 49.7486C1008.14 49.7486 1010.02 49.8575 1012.04 50.0753C1014.05 50.2931 1015.82 50.5926 1017.34 50.9737V81.8473C1015.71 81.3572 1013.45 80.9216 1010.57 80.5405C1007.68 80.1593 1005.04 79.9688 1002.64 79.9688C997.525 79.9688 992.951 81.085 988.922 83.3175C984.947 85.4955 981.789 88.5447 979.447 92.4652C977.16 96.3857 976.017 100.905 976.017 106.023V177H941.223ZM1086.67 179.45C1073.76 179.45 1062.65 176.837 1053.34 171.609C1044.09 166.328 1036.95 158.868 1031.94 149.23C1026.94 139.538 1024.43 128.076 1024.43 114.844C1024.43 101.94 1026.94 90.6139 1031.94 80.8672C1036.95 71.1205 1044.01 63.5246 1053.1 58.0795C1062.25 52.6345 1072.97 49.9119 1085.28 49.9119C1093.56 49.9119 1101.26 51.246 1108.39 53.9141C1115.58 56.5277 1121.84 60.4754 1127.18 65.7571C1132.57 71.0388 1136.76 77.6818 1139.76 85.6861C1142.75 93.6359 1144.25 102.947 1144.25 113.619V123.175H1038.32V101.613H1111.5C1111.5 96.6035 1110.41 92.1657 1108.23 88.2997C1106.05 84.4337 1103.03 81.4117 1099.16 79.2337C1095.35 77.0012 1090.91 75.8849 1085.85 75.8849C1080.57 75.8849 1075.89 77.1101 1071.8 79.5604C1067.77 81.9562 1064.62 85.196 1062.33 89.2798C1060.04 93.3092 1058.87 97.8014 1058.82 102.756V123.257C1058.82 129.464 1059.96 134.828 1062.25 139.347C1064.59 143.867 1067.88 147.352 1072.13 149.802C1076.38 152.252 1081.41 153.477 1087.24 153.477C1091.11 153.477 1094.64 152.933 1097.86 151.844C1101.07 150.755 1103.82 149.121 1106.11 146.943C1108.39 144.765 1110.14 142.097 1111.33 138.939L1143.51 141.062C1141.88 148.795 1138.53 155.546 1133.47 161.318C1128.46 167.036 1121.98 171.5 1114.03 174.713C1106.13 177.871 1097.01 179.45 1086.67 179.45Z"/>
</mask>
<path d="M0.538352 9.72727V8.72727H-0.461648V9.72727H0.538352ZM44.1534 9.72727L45.0787 9.34801L44.8243 8.72727H44.1534V9.72727ZM90.2188 122.114L89.2935 122.493L89.5479 123.114H90.2188V122.114ZM92.179 122.114V123.114H92.8498L93.1043 122.493L92.179 122.114ZM138.244 9.72727V8.72727H137.573L137.319 9.34801L138.244 9.72727ZM181.859 9.72727H182.859V8.72727H181.859V9.72727ZM181.859 177V178H182.859V177H181.859ZM147.555 177H146.555V178H147.555V177ZM147.555 68.1257H148.555V67.1257H147.555V68.1257ZM146.167 68.1257V67.1257H145.49L145.239 67.7538L146.167 68.1257ZM102.879 176.183V177.183H103.555L103.807 176.555L102.879 176.183ZM79.5192 176.183L78.5904 176.554L78.8416 177.183H79.5192V176.183ZM36.2308 67.7173L37.1596 67.3467L36.9084 66.7173H36.2308V67.7173ZM34.8423 67.7173V66.7173H33.8423V67.7173H34.8423ZM34.8423 177V178H35.8423V177H34.8423ZM0.538352 177H-0.461648V178H0.538352V177ZM0.538352 10.7273H44.1534V8.72727H0.538352V10.7273ZM43.2281 10.1065L89.2935 122.493L91.144 121.734L45.0787 9.34801L43.2281 10.1065ZM90.2188 123.114H92.179V121.114H90.2188V123.114ZM93.1043 122.493L139.17 10.1065L137.319 9.34801L91.2537 121.734L93.1043 122.493ZM138.244 10.7273H181.859V8.72727H138.244V10.7273ZM180.859 9.72727V177H182.859V9.72727H180.859ZM181.859 176H147.555V178H181.859V176ZM148.555 177V68.1257H146.555V177H148.555ZM147.555 67.1257H146.167V69.1257H147.555V67.1257ZM145.239 67.7538L101.95 175.811L103.807 176.555L147.095 68.4976L145.239 67.7538ZM102.879 175.183H79.5192V177.183H102.879V175.183ZM80.4479 175.813L37.1596 67.3467L35.3021 68.088L78.5904 176.554L80.4479 175.813ZM36.2308 66.7173H34.8423V68.7173H36.2308V66.7173ZM33.8423 67.7173V177H35.8423V67.7173H33.8423ZM34.8423 176H0.538352V178H34.8423V176ZM1.53835 177V9.72727H-0.461648V177H1.53835ZM210.344 177H209.344V178H210.344V177ZM210.344 51.5455V50.5455H209.344V51.5455H210.344ZM245.138 51.5455H246.138V50.5455H245.138V51.5455ZM245.138 177V178H246.138V177H245.138ZM214.509 30.228L213.819 30.9511L213.824 30.9564L213.83 30.9615L214.509 30.228ZM214.509 5.39844L215.194 6.12696L215.195 6.12664L214.509 5.39844ZM241.054 5.39844L240.363 6.12155L240.369 6.12682L240.375 6.132L241.054 5.39844ZM241.054 30.228L241.739 30.9565L241.74 30.9562L241.054 30.228ZM211.344 177V51.5455H209.344V177H211.344ZM210.344 52.5455H245.138V50.5455H210.344V52.5455ZM244.138 51.5455V177H246.138V51.5455H244.138ZM245.138 176H210.344V178H245.138V176ZM227.823 34.3736C222.895 34.3736 218.702 32.7489 215.189 29.4944L213.83 30.9615C217.722 34.5679 222.405 36.3736 227.823 36.3736V34.3736ZM215.2 29.5049C211.74 26.2 210.037 22.2921 210.037 17.7315H208.037C208.037 22.8632 209.982 27.2863 213.819 30.9511L215.2 29.5049ZM210.037 17.7315C210.037 13.2294 211.737 9.37794 215.194 6.12696L213.824 4.66992C209.985 8.27972 208.037 12.6503 208.037 17.7315H210.037ZM215.195 6.12664C218.708 2.81971 222.9 1.17116 227.823 1.17116V-0.828844C222.4 -0.828844 217.716 1.00746 213.824 4.67024L215.195 6.12664ZM227.823 1.17116C232.745 1.17116 236.906 2.81935 240.363 6.12155L241.745 4.67533C237.905 1.00781 233.245 -0.828844 227.823 -0.828844V1.17116ZM240.375 6.132C243.885 9.38452 245.608 13.2346 245.608 17.7315H247.608C247.608 12.6451 245.628 8.27314 241.734 4.66488L240.375 6.132ZM245.608 17.7315C245.608 22.287 243.882 26.1934 240.369 29.4998L241.74 30.9562C245.632 27.2928 247.608 22.8683 247.608 17.7315H245.608ZM240.369 29.4995C236.913 32.7492 232.75 34.3736 227.823 34.3736V36.3736C233.241 36.3736 237.899 34.5675 241.739 30.9565L240.369 29.4995ZM307.804 9.72727H308.804V8.72727H307.804V9.72727ZM307.804 177V178H308.804V177H307.804ZM273.01 177H272.01V178H273.01V177ZM273.01 9.72727V8.72727H272.01V9.72727H273.01ZM306.804 9.72727V177H308.804V9.72727H306.804ZM307.804 176H273.01V178H307.804V176ZM274.01 177V9.72727H272.01V177H274.01ZM273.01 10.7273H307.804V8.72727H273.01V10.7273ZM370.47 9.72727H371.47V8.72727H370.47V9.72727ZM370.47 177V178H371.47V177H370.47ZM335.676 177H334.676V178H335.676V177ZM335.676 9.72727V8.72727H334.676V9.72727H335.676ZM369.47 9.72727V177H371.47V9.72727H369.47ZM370.47 176H335.676V178H370.47V176ZM336.676 177V9.72727H334.676V177H336.676ZM335.676 10.7273H370.47V8.72727H335.676V10.7273ZM398.342 177H397.342V178H398.342V177ZM398.342 51.5455V50.5455H397.342V51.5455H398.342ZM433.136 51.5455H434.136V50.5455H433.136V51.5455ZM433.136 177V178H434.136V177H433.136ZM402.507 30.228L401.817 30.9511L401.822 30.9564L401.828 30.9615L402.507 30.228ZM402.507 5.39844L403.192 6.12696L403.193 6.12664L402.507 5.39844ZM429.052 5.39844L428.361 6.12155L428.367 6.12682L428.373 6.132L429.052 5.39844ZM429.052 30.228L429.737 30.9565L429.738 30.9562L429.052 30.228ZM399.342 177V51.5455H397.342V177H399.342ZM398.342 52.5455H433.136V50.5455H398.342V52.5455ZM432.136 51.5455V177H434.136V51.5455H432.136ZM433.136 176H398.342V178H433.136V176ZM415.821 34.3736C410.893 34.3736 406.7 32.7489 403.187 29.4944L401.828 30.9615C405.72 34.5679 410.403 36.3736 415.821 36.3736V34.3736ZM403.198 29.5049C399.738 26.2 398.035 22.2921 398.035 17.7315H396.035C396.035 22.8632 397.98 27.2863 401.817 30.9511L403.198 29.5049ZM398.035 17.7315C398.035 13.2294 399.735 9.37794 403.192 6.12696L401.822 4.66992C397.983 8.27972 396.035 12.6503 396.035 17.7315H398.035ZM403.193 6.12664C406.706 2.81971 410.898 1.17116 415.821 1.17116V-0.828844C410.398 -0.828844 405.714 1.00746 401.822 4.67024L403.193 6.12664ZM415.821 1.17116C420.743 1.17116 424.904 2.81935 428.361 6.12155L429.743 4.67533C425.904 1.00781 421.244 -0.828844 415.821 -0.828844V1.17116ZM428.373 6.132C431.883 9.38452 433.606 13.2346 433.606 17.7315H435.606C435.606 12.6451 433.626 8.27314 429.732 4.66488L428.373 6.132ZM433.606 17.7315C433.606 22.287 431.88 26.1934 428.367 29.4998L429.738 30.9562C433.63 27.2928 435.606 22.8683 435.606 17.7315H433.606ZM428.367 29.4995C424.911 32.7492 420.748 34.3736 415.821 34.3736V36.3736C421.239 36.3736 425.897 34.5675 429.737 30.9565L428.367 29.4995ZM484.776 171.364L484.266 172.225L484.273 172.229L484.776 171.364ZM463.458 148.658L462.569 149.116L462.57 149.118L463.458 148.658ZM463.458 80.7855L464.347 81.2447L464.348 81.2426L463.458 80.7855ZM484.776 58.0795L485.281 58.9424L485.283 58.9415L484.776 58.0795ZM550.525 58.0795L550.016 58.9402L550.022 58.9437L550.525 58.0795ZM571.924 80.7855L571.035 81.2426L571.036 81.2447L571.924 80.7855ZM571.924 148.658L572.813 149.118L572.814 149.116L571.924 148.658ZM550.525 171.364L551.031 172.227L551.032 172.226L550.525 171.364ZM532.311 147.597L532.957 148.36L532.963 148.355L532.311 147.597ZM541.051 134.038L540.107 133.706L540.105 133.714L541.051 134.038ZM541.051 94.9972L540.105 95.3215L540.107 95.3295L541.051 94.9972ZM503.153 81.4389L502.512 80.6715L502.506 80.6759L503.153 81.4389ZM494.25 94.9972L493.307 94.6648L493.304 94.6728L494.25 94.9972ZM494.25 134.038L493.304 134.363L493.307 134.371L494.25 134.038ZM503.153 147.597L502.506 148.36L502.512 148.364L502.518 148.369L503.153 147.597ZM517.691 178.45C505.148 178.45 494.357 175.787 485.279 170.5L484.273 172.229C493.708 177.723 504.86 180.45 517.691 180.45V178.45ZM485.285 170.504C476.248 165.156 469.272 157.728 464.347 148.199L462.57 149.118C467.664 158.973 474.899 166.682 484.267 172.225L485.285 170.504ZM464.348 148.201C459.422 138.618 456.944 127.482 456.944 114.763H454.944C454.944 127.745 457.475 139.205 462.569 149.116L464.348 148.201ZM456.944 114.763C456.944 101.933 459.423 90.7706 464.347 81.2447L462.57 80.3264C457.475 90.1849 454.944 101.674 454.944 114.763H456.944ZM464.348 81.2426C469.273 71.66 476.248 64.2342 485.281 58.9424L484.27 57.2167C474.899 62.7061 467.663 70.4176 462.569 80.3284L464.348 81.2426ZM485.283 58.9415C494.36 53.602 505.15 50.9119 517.691 50.9119V48.9119C504.858 48.9119 493.705 51.6669 484.269 57.2176L485.283 58.9415ZM517.691 50.9119C530.233 50.9119 540.994 53.6021 550.016 58.9402L551.034 57.2189C541.651 51.6669 530.524 48.9119 517.691 48.9119V50.9119ZM550.022 58.9437C559.11 64.236 566.11 71.6616 571.035 81.2426L572.814 80.3284C567.719 70.4161 560.454 62.7044 551.028 57.2154L550.022 58.9437ZM571.036 81.2447C575.959 90.7706 578.438 101.933 578.438 114.763H580.438C580.438 101.674 577.908 90.1849 572.813 80.3264L571.036 81.2447ZM578.438 114.763C578.438 127.482 575.96 138.618 571.035 148.201L572.814 149.116C577.907 139.205 580.438 127.745 580.438 114.763H578.438ZM571.036 148.199C566.112 157.727 559.109 165.155 550.018 170.502L551.032 172.226C560.454 166.684 567.718 158.974 572.813 149.118L571.036 148.199ZM550.02 170.501C540.997 175.787 530.234 178.45 517.691 178.45V180.45C530.522 180.45 541.648 177.723 551.031 172.227L550.02 170.501ZM517.855 153.497C523.828 153.497 528.885 151.801 532.957 148.36L531.666 146.833C528.005 149.926 523.425 151.497 517.855 151.497V153.497ZM532.963 148.355C536.987 144.898 539.989 140.217 541.997 134.363L540.105 133.714C538.191 139.294 535.367 143.652 531.66 146.838L532.963 148.355ZM541.994 134.371C544.053 128.527 545.073 121.905 545.073 114.518H543.073C543.073 121.723 542.078 128.115 540.107 133.706L541.994 134.371ZM545.073 114.518C545.073 107.131 544.053 100.508 541.994 94.6648L540.107 95.3295C542.078 100.921 543.073 107.312 543.073 114.518H545.073ZM541.997 94.6728C539.989 88.8186 536.987 84.1378 532.963 80.6804L531.66 82.1974C535.367 85.383 538.191 89.741 540.105 95.3215L541.997 94.6728ZM532.963 80.6804C528.892 77.1824 523.832 75.4567 517.855 75.4567V77.4567C523.421 77.4567 527.999 79.0524 531.66 82.1974L532.963 80.6804ZM517.855 75.4567C511.825 75.4567 506.689 77.181 502.512 80.6716L503.794 82.2063C507.567 79.0539 512.232 77.4567 517.855 77.4567V75.4567ZM502.506 80.6759C498.428 84.1312 495.37 88.8104 493.307 94.6648L495.193 95.3295C497.16 89.7492 500.037 85.3896 503.799 82.2019L502.506 80.6759ZM493.304 94.6728C491.302 100.514 490.31 107.133 490.31 114.518H492.31C492.31 107.31 493.278 100.915 495.196 95.3215L493.304 94.6728ZM490.31 114.518C490.31 121.902 491.302 128.522 493.304 134.363L495.196 133.714C493.278 128.12 492.31 121.726 492.31 114.518H490.31ZM493.307 134.371C495.37 140.225 498.428 144.904 502.506 148.36L503.799 146.834C500.037 143.646 497.16 139.286 495.193 133.706L493.307 134.371ZM502.518 148.369C506.695 151.803 511.829 153.497 517.855 153.497V151.497C512.227 151.497 507.56 149.925 503.788 146.824L502.518 148.369ZM636.857 104.472L635.857 104.461V104.472H636.857ZM636.857 177V178H637.857V177H636.857ZM602.063 177H601.063V178H602.063V177ZM602.063 51.5455V50.5455H601.063V51.5455H602.063ZM635.223 51.5455H636.223V50.5455H635.223V51.5455ZM635.223 73.6797H634.223V74.6797H635.223V73.6797ZM636.693 73.6797V74.6797H637.383L637.628 74.0354L636.693 73.6797ZM650.66 56.3643L651.205 57.2028L651.21 57.1996L650.66 56.3643ZM697.215 55.6293L697.722 54.7673L697.215 55.6293ZM712.325 71.9645L711.434 72.4172L711.435 72.42L712.325 71.9645ZM717.716 177V178H718.716V177H717.716ZM682.922 177H681.922V178H682.922V177ZM682.922 103.328L681.922 103.321V103.328H682.922ZM677.041 85.3594L676.303 86.0334L676.307 86.038L677.041 85.3594ZM648.21 81.8473L647.721 80.975L647.715 80.9782L648.21 81.8473ZM639.879 90.6683L638.992 90.2062L638.989 90.211L639.879 90.6683ZM635.857 104.472V177H637.857V104.472H635.857ZM636.857 176H602.063V178H636.857V176ZM603.063 177V51.5455H601.063V177H603.063ZM602.063 52.5455H635.223V50.5455H602.063V52.5455ZM634.223 51.5455V73.6797H636.223V51.5455H634.223ZM635.223 74.6797H636.693V72.6797H635.223V74.6797ZM637.628 74.0354C640.33 66.9368 644.849 61.3342 651.205 57.2028L650.115 55.5259C643.403 59.8888 638.611 65.8298 635.759 73.324L637.628 74.0354ZM651.21 57.1996C657.552 53.0245 665.274 50.9119 674.428 50.9119V48.9119C664.959 48.9119 656.836 51.101 650.11 55.5291L651.21 57.1996ZM674.428 50.9119C682.99 50.9119 690.405 52.7836 696.708 56.4912L697.722 54.7673C691.066 50.8519 683.289 48.9119 674.428 48.9119V50.9119ZM696.708 56.4912C703.014 60.2003 707.921 65.4989 711.434 72.4172L713.217 71.5118C709.542 64.2728 704.376 58.6813 697.722 54.7673L696.708 56.4912ZM711.435 72.42C714.942 79.2738 716.716 87.4958 716.716 97.1207H718.716C718.716 87.2523 716.897 78.7035 713.216 71.509L711.435 72.42ZM716.716 97.1207V177H718.716V97.1207H716.716ZM717.716 176H682.922V178H717.716V176ZM683.922 177V103.328H681.922V177H683.922ZM683.922 103.335C683.978 95.4849 681.971 89.2211 677.776 84.6807L676.307 86.038C680.061 90.1009 681.975 95.8162 681.922 103.321L683.922 103.335ZM677.78 84.6853C673.581 80.0837 667.819 77.8253 660.624 77.8253V79.8253C667.369 79.8253 672.552 81.9229 676.303 86.0334L677.78 84.6853ZM660.624 77.8253C655.794 77.8253 651.483 78.8657 647.721 80.975L648.699 82.7196C652.124 80.7995 656.089 79.8253 660.624 79.8253V77.8253ZM647.715 80.9782C643.997 83.0948 641.089 86.1822 638.992 90.2062L640.766 91.1305C642.698 87.4224 645.344 84.6291 648.704 82.7164L647.715 80.9782ZM638.989 90.211C636.942 94.192 635.912 98.9543 635.857 104.461L637.857 104.482C637.91 99.2076 638.895 94.7677 640.768 91.1257L638.989 90.211ZM759.514 175.203L759.102 176.114L759.108 176.117L759.514 175.203ZM744.649 162.707L743.809 163.25L743.815 163.259L744.649 162.707ZM743.097 124.401L742.217 123.925L743.097 124.401ZM753.552 112.966L753.004 112.129L753.552 112.966ZM768.58 106.432L768.329 105.464L768.326 105.465L768.58 106.432ZM786.385 103.328L786.481 104.324L786.489 104.323L786.385 103.328ZM804.027 101.205L804.172 102.194L804.184 102.192L804.027 101.205ZM813.747 98.1009L813.187 97.2723L813.747 98.1009ZM811.868 79.5604L811.207 80.3106L811.213 80.3161L811.868 79.5604ZM783.2 79.4787L783.792 80.2844L783.8 80.2787L783.2 79.4787ZM775.849 89.7699L775.768 90.7666L776.582 90.8327L776.81 90.0479L775.849 89.7699ZM743.669 87.1562L742.691 86.9467L742.452 88.0607L743.588 88.153L743.669 87.1562ZM753.306 67.3906L754.064 68.0439L754.067 68.0402L753.306 67.3906ZM771.847 54.4858L772.215 55.4156L772.218 55.4143L771.847 54.4858ZM818.321 52.3622L818.072 53.3309L818.074 53.3314L818.321 52.3622ZM835.391 59.9581L834.822 60.7803L834.826 60.7832L835.391 59.9581ZM847.234 73.1896L846.352 73.6616L846.354 73.6653L847.234 73.1896ZM851.563 177V178H852.563V177H851.563ZM818.566 177H817.566V178H818.566V177ZM818.566 159.603H819.566V158.603H818.566V159.603ZM817.586 159.603V158.603H816.975L816.696 159.146L817.586 159.603ZM809.5 169.976L810.156 170.73L810.163 170.724L809.5 169.976ZM797.33 176.918L797.656 177.864L797.666 177.86L797.33 176.918ZM804.436 152.334L804.893 153.223L804.902 153.218L804.436 152.334ZM813.665 144.003L812.823 143.463L813.665 144.003ZM817.014 118.847H818.014V117.004L816.469 118.008L817.014 118.847ZM812.522 120.807L812.804 121.766L812.813 121.764L812.821 121.761L812.522 120.807ZM806.233 122.359L806.416 123.342L806.427 123.34L806.437 123.337L806.233 122.359ZM799.208 123.584L799.347 124.574L799.358 124.573L799.369 124.571L799.208 123.584ZM792.838 124.482L792.696 123.492L792.693 123.493L792.838 124.482ZM782.138 127.341L782.532 128.26L782.138 127.341ZM775.032 132.65L775.823 133.262L775.83 133.253L775.032 132.65ZM777.646 151.68L777.056 152.488L777.063 152.493L777.071 152.498L777.646 151.68ZM780.913 178.369C773.025 178.369 766.034 177.001 759.919 174.289L759.108 176.117C765.518 178.96 772.792 180.369 780.913 180.369V178.369ZM759.926 174.292C753.828 171.535 749.022 167.49 745.482 162.154L743.815 163.259C747.572 168.922 752.676 173.209 759.102 176.114L759.926 174.292ZM745.488 162.163C742.023 156.808 740.258 150.093 740.258 141.961H738.258C738.258 150.382 740.087 157.498 743.809 163.25L745.488 162.163ZM740.258 141.961C740.258 135.11 741.516 129.43 743.977 124.876L742.217 123.925C739.559 128.845 738.258 134.873 738.258 141.961H740.258ZM743.977 124.876C746.459 120.282 749.831 116.596 754.099 113.803L753.004 112.129C748.451 115.108 744.854 119.045 742.217 123.925L743.977 124.876ZM754.099 113.803C758.411 110.981 763.319 108.845 768.833 107.399L768.326 105.465C762.624 106.959 757.513 109.179 753.004 112.129L754.099 113.803ZM768.831 107.4C774.44 105.944 780.323 104.918 786.481 104.324L786.289 102.333C780.033 102.936 774.046 103.98 768.329 105.464L768.831 107.4ZM786.489 104.323C793.792 103.56 799.688 102.85 804.172 102.194L803.883 100.215C799.437 100.866 793.571 101.572 786.281 102.334L786.489 104.323ZM804.184 102.192C808.69 101.478 812.107 100.416 814.307 98.9294L813.187 97.2723C811.357 98.5084 808.295 99.5155 803.871 100.217L804.184 102.192ZM814.307 98.9294C816.627 97.3619 817.769 95.019 817.769 92.0568H815.769C815.769 94.4308 814.896 96.1173 813.187 97.2723L814.307 98.9294ZM817.769 92.0568V91.5668H815.769V92.0568H817.769ZM817.769 91.5668C817.769 86.1664 816.053 81.8635 812.523 78.8047L811.213 80.3161C814.218 82.9201 815.769 86.6215 815.769 91.5668H817.769ZM812.529 78.8102C809.074 75.7649 804.231 74.3132 798.147 74.3132V76.3132C803.932 76.3132 808.237 77.693 811.207 80.3106L812.529 78.8102ZM798.147 74.3132C791.744 74.3132 786.528 75.7329 782.6 78.6787L783.8 80.2787C787.278 77.6705 792.026 76.3132 798.147 76.3132V74.3132ZM782.608 78.673C778.74 81.5168 776.152 85.1273 774.888 89.4918L776.81 90.0479C777.942 86.1359 780.255 82.8857 783.792 80.2843L782.608 78.673ZM775.93 88.7732L743.75 86.1595L743.588 88.153L775.768 90.7666L775.93 88.7732ZM744.646 87.3658C746.247 79.8961 749.388 73.4628 754.064 68.0439L752.549 66.7374C747.641 72.4264 744.357 79.1702 742.691 86.9467L744.646 87.3658ZM754.067 68.0402C758.742 62.5682 764.782 58.3567 772.215 55.4156L771.479 53.5559C763.775 56.6044 757.454 60.9961 752.546 66.7411L754.067 68.0402ZM772.218 55.4143C779.7 52.4214 788.391 50.9119 798.31 50.9119V48.9119C788.191 48.9119 779.24 50.4517 771.476 53.5573L772.218 55.4143ZM798.31 50.9119C805.201 50.9119 811.787 51.7194 818.072 53.3309L818.569 51.3935C812.112 49.738 805.359 48.9119 798.31 48.9119V50.9119ZM818.074 53.3314C824.396 54.9385 829.974 57.4242 834.822 60.7803L835.96 59.1359C830.898 55.6312 825.096 53.053 818.567 51.393L818.074 53.3314ZM834.826 60.7832C839.702 64.1223 843.542 68.4113 846.352 73.6616L848.116 72.7177C845.155 67.1867 841.099 62.6547 835.956 59.133L834.826 60.7832ZM846.354 73.6653C849.145 78.8255 850.563 85.0522 850.563 92.3835H852.563C852.563 84.7953 851.095 78.2261 848.114 72.7139L846.354 73.6653ZM850.563 92.3835V177H852.563V92.3835H850.563ZM851.563 176H818.566V178H851.563V176ZM819.566 177V159.603H817.566V177H819.566ZM818.566 158.603H817.586V160.603H818.566V158.603ZM816.696 159.146C814.739 162.954 812.122 166.313 808.836 169.228L810.163 170.724C813.63 167.649 816.402 164.093 818.475 160.06L816.696 159.146ZM808.843 169.222C805.572 172.07 801.628 174.325 796.994 175.976L797.666 177.86C802.506 176.135 806.675 173.762 810.156 170.73L808.843 169.222ZM797.004 175.973C792.393 177.563 787.035 178.369 780.913 178.369V180.369C787.206 180.369 792.792 179.541 797.656 177.864L797.004 175.973ZM790.878 156.356C796.129 156.356 800.81 155.321 804.893 153.223L803.979 151.444C800.221 153.376 795.863 154.356 790.878 154.356V156.356ZM804.902 153.218C808.964 151.074 812.175 148.183 814.507 144.542L812.823 143.463C810.69 146.792 807.748 149.455 803.969 151.449L804.902 153.218ZM814.507 144.542C816.85 140.886 818.014 136.748 818.014 132.16H816.014C816.014 136.392 814.946 140.15 812.823 143.463L814.507 144.542ZM818.014 132.16V118.847H816.014V132.16H818.014ZM816.469 118.008C815.485 118.648 814.082 119.268 812.222 119.853L812.821 121.761C814.773 121.148 816.365 120.461 817.559 119.685L816.469 118.008ZM812.24 119.847C810.419 120.383 808.349 120.894 806.028 121.38L806.437 123.337C808.799 122.843 810.922 122.32 812.804 121.766L812.24 119.847ZM806.05 121.376C803.716 121.81 801.382 122.217 799.048 122.597L799.369 124.571C801.718 124.188 804.067 123.779 806.416 123.342L806.05 121.376ZM799.07 122.593C796.728 122.92 794.603 123.22 792.696 123.492L792.979 125.472C794.884 125.2 797.006 124.901 799.347 124.574L799.07 122.593ZM792.693 123.493C788.543 124.101 784.89 125.074 781.744 126.422L782.532 128.26C785.485 126.994 788.965 126.061 792.983 125.472L792.693 123.493ZM781.744 126.422C778.565 127.784 776.045 129.652 774.235 132.047L775.83 133.253C777.395 131.183 779.613 129.511 782.532 128.26L781.744 126.422ZM774.242 132.037C772.394 134.422 771.5 137.371 771.5 140.817H773.5C773.5 137.73 774.295 135.234 775.823 133.262L774.242 132.037ZM771.5 140.817C771.5 145.831 773.336 149.771 777.056 152.488L778.236 150.873C775.096 148.58 773.5 145.278 773.5 140.817H771.5ZM777.071 152.498C780.762 155.094 785.388 156.356 790.878 156.356V154.356C785.695 154.356 781.499 153.167 778.221 150.862L777.071 152.498ZM878.557 177H877.557V178H878.557V177ZM878.557 51.5455V50.5455H877.557V51.5455H878.557ZM913.351 51.5455H914.351V50.5455H913.351V51.5455ZM913.351 177V178H914.351V177H913.351ZM882.722 30.228L882.032 30.9511L882.037 30.9564L882.043 30.9615L882.722 30.228ZM882.722 5.39844L883.407 6.12696L883.408 6.12664L882.722 5.39844ZM909.267 5.39844L908.576 6.12155L908.582 6.12682L908.587 6.132L909.267 5.39844ZM909.267 30.228L909.952 30.9565L909.952 30.9562L909.267 30.228ZM879.557 177V51.5455H877.557V177H879.557ZM878.557 52.5455H913.351V50.5455H878.557V52.5455ZM912.351 51.5455V177H914.351V51.5455H912.351ZM913.351 176H878.557V178H913.351V176ZM896.036 34.3736C891.108 34.3736 886.915 32.7489 883.402 29.4944L882.043 30.9615C885.935 34.5679 890.618 36.3736 896.036 36.3736V34.3736ZM883.413 29.5049C879.953 26.2 878.25 22.2921 878.25 17.7315H876.25C876.25 22.8632 878.195 27.2863 882.032 30.9511L883.413 29.5049ZM878.25 17.7315C878.25 13.2294 879.95 9.37794 883.407 6.12696L882.037 4.66992C878.198 8.27972 876.25 12.6503 876.25 17.7315H878.25ZM883.408 6.12664C886.921 2.81971 891.112 1.17116 896.036 1.17116V-0.828844C890.613 -0.828844 885.929 1.00746 882.037 4.67024L883.408 6.12664ZM896.036 1.17116C900.958 1.17116 905.119 2.81935 908.576 6.12155L909.958 4.67533C906.118 1.00781 901.458 -0.828844 896.036 -0.828844V1.17116ZM908.587 6.132C912.098 9.38452 913.821 13.2346 913.821 17.7315H915.821C915.821 12.6451 913.841 8.27314 909.947 4.66488L908.587 6.132ZM913.821 17.7315C913.821 22.287 912.095 26.1934 908.582 29.4998L909.952 30.9562C913.845 27.2928 915.821 22.8683 915.821 17.7315H913.821ZM908.582 29.4995C905.126 32.7492 900.963 34.3736 896.036 34.3736V36.3736C901.454 36.3736 906.112 34.5675 909.952 30.9565L908.582 29.4995ZM941.223 177H940.223V178H941.223V177ZM941.223 51.5455V50.5455H940.223V51.5455H941.223ZM974.955 51.5455H975.955V50.5455H974.955V51.5455ZM974.955 73.4347H973.955V74.4347H974.955V73.4347ZM976.262 73.4347V74.4347H977.01L977.221 73.7165L976.262 73.4347ZM987.778 55.7926L988.372 56.5975L988.377 56.5936L987.778 55.7926ZM1012.04 50.0753L1012.14 49.0811L1012.04 50.0753ZM1017.34 50.9737H1018.34V50.1929L1017.59 50.0036L1017.34 50.9737ZM1017.34 81.8473L1017.06 82.8051L1018.34 83.1913V81.8473H1017.34ZM988.922 83.3175L989.402 84.1945L989.406 84.1922L988.922 83.3175ZM979.447 92.4652L978.589 91.9524L978.583 91.9613L979.447 92.4652ZM976.017 177V178H977.017V177H976.017ZM942.223 177V51.5455H940.223V177H942.223ZM941.223 52.5455H974.955V50.5455H941.223V52.5455ZM973.955 51.5455V73.4347H975.955V51.5455H973.955ZM974.955 74.4347H976.262V72.4347H974.955V74.4347ZM977.221 73.7165C979.46 66.0941 983.192 60.4171 988.372 56.5975L987.185 54.9878C981.583 59.118 977.638 65.2023 975.302 73.1529L977.221 73.7165ZM988.377 56.5936C993.587 52.6993 999.582 50.7486 1006.4 50.7486V48.7486C999.171 48.7486 992.751 50.8272 987.18 54.9916L988.377 56.5936ZM1006.4 50.7486C1008.1 50.7486 1009.94 50.8549 1011.93 51.0695L1012.14 49.0811C1010.1 48.86 1008.18 48.7486 1006.4 48.7486V50.7486ZM1011.93 51.0695C1013.91 51.2837 1015.63 51.5765 1017.1 51.9439L1017.59 50.0036C1016.01 49.6087 1014.19 49.3025 1012.14 49.0811L1011.93 51.0695ZM1016.34 50.9737V81.8473H1018.34V50.9737H1016.34ZM1017.63 80.8895C1015.92 80.3771 1013.6 79.9331 1010.7 79.5491L1010.43 81.5319C1013.3 81.9102 1015.5 82.3374 1017.06 82.8051L1017.63 80.8895ZM1010.7 79.5491C1007.78 79.1634 1005.09 78.9688 1002.64 78.9688V80.9688C1004.99 80.9688 1007.58 81.1553 1010.43 81.5319L1010.7 79.5491ZM1002.64 78.9688C997.375 78.9688 992.631 80.1193 988.437 82.4428L989.406 84.1922C993.271 82.0507 997.675 80.9688 1002.64 80.9688V78.9688ZM988.441 82.4405C984.309 84.7048 981.021 87.8803 978.589 91.9525L980.306 92.9779C982.557 89.2092 985.585 86.2862 989.402 84.1945L988.441 82.4405ZM978.583 91.9613C976.196 96.0535 975.017 100.751 975.017 106.023H977.017C977.017 101.059 978.124 96.7178 980.311 92.9691L978.583 91.9613ZM975.017 106.023V177H977.017V106.023H975.017ZM976.017 176H941.223V178H976.017V176ZM1053.34 171.609L1052.85 172.478L1052.85 172.481L1053.34 171.609ZM1031.94 149.23L1031.06 149.689L1031.06 149.691L1031.94 149.23ZM1031.94 80.8672L1031.06 80.4101L1031.94 80.8672ZM1053.1 58.0795L1052.59 57.2202L1052.58 57.2216L1053.1 58.0795ZM1108.39 53.9141L1108.04 54.8507L1108.05 54.8539L1108.39 53.9141ZM1127.18 65.7571L1126.48 66.4678L1126.48 66.4714L1127.18 65.7571ZM1139.76 85.6861L1138.82 86.0365L1138.82 86.0386L1139.76 85.6861ZM1144.25 123.175V124.175H1145.25V123.175H1144.25ZM1038.32 123.175H1037.32V124.175H1038.32V123.175ZM1038.32 101.613V100.613H1037.32V101.613H1038.32ZM1111.5 101.613V102.613H1112.5V101.613H1111.5ZM1108.23 88.2997L1107.36 88.7906L1108.23 88.2997ZM1099.16 79.2337L1098.66 80.0965L1098.67 80.1008L1098.67 80.1049L1099.16 79.2337ZM1071.8 79.5604L1072.31 80.4199L1072.32 80.4179L1071.8 79.5604ZM1062.33 89.2798L1063.2 89.7734L1063.2 89.7684L1062.33 89.2798ZM1058.82 102.756L1057.82 102.745V102.756H1058.82ZM1062.25 139.347L1061.35 139.799L1061.36 139.807L1062.25 139.347ZM1097.86 151.844L1097.54 150.897L1097.86 151.844ZM1106.11 146.943L1105.42 146.219L1106.11 146.943ZM1111.33 138.939L1111.4 137.941L1110.66 137.892L1110.4 138.584L1111.33 138.939ZM1143.51 141.062L1144.49 141.269L1144.73 140.141L1143.58 140.065L1143.51 141.062ZM1133.47 161.318L1132.72 160.659L1132.72 160.659L1133.47 161.318ZM1114.03 174.713L1114.4 175.642L1114.4 175.64L1114.03 174.713ZM1086.67 178.45C1073.9 178.45 1062.97 175.865 1053.83 170.737L1052.85 172.481C1062.34 177.808 1073.63 180.45 1086.67 180.45V178.45ZM1053.84 170.741C1044.75 165.556 1037.75 158.24 1032.83 148.769L1031.06 149.691C1036.15 159.496 1043.42 167.099 1052.85 172.478L1053.84 170.741ZM1032.83 148.771C1027.91 139.248 1025.43 127.95 1025.43 114.844H1023.43C1023.43 128.202 1025.96 139.828 1031.06 149.689L1032.83 148.771ZM1025.43 114.844C1025.43 102.07 1027.91 90.9065 1032.83 81.3243L1031.06 80.4101C1025.96 90.3213 1023.43 101.809 1023.43 114.844H1025.43ZM1032.83 81.3243C1037.76 71.7378 1044.68 64.2833 1053.61 58.9375L1052.58 57.2216C1043.33 62.766 1036.15 70.5033 1031.06 80.4101L1032.83 81.3243ZM1053.61 58.9388C1062.58 53.5994 1073.12 50.9119 1085.28 50.9119V48.9119C1072.82 48.9119 1061.91 51.6695 1052.59 57.2202L1053.61 58.9388ZM1085.28 50.9119C1093.45 50.9119 1101.03 52.228 1108.04 54.8507L1108.74 52.9774C1101.49 50.2639 1093.66 48.9119 1085.28 48.9119V50.9119ZM1108.05 54.8539C1115.11 57.4191 1121.24 61.2896 1126.48 66.4678L1127.88 65.0464C1122.44 59.6611 1116.06 55.6363 1108.74 52.9743L1108.05 54.8539ZM1126.48 66.4714C1131.75 71.6378 1135.87 78.1512 1138.82 86.0365L1140.69 85.3356C1137.65 77.2124 1133.39 70.4398 1127.88 65.0428L1126.48 66.4714ZM1138.82 86.0386C1141.76 93.851 1143.25 103.038 1143.25 113.619H1145.25C1145.25 102.856 1143.74 93.4208 1140.69 85.3335L1138.82 86.0386ZM1143.25 113.619V123.175H1145.25V113.619H1143.25ZM1144.25 122.175H1038.32V124.175H1144.25V122.175ZM1039.32 123.175V101.613H1037.32V123.175H1039.32ZM1038.32 102.613H1111.5V100.613H1038.32V102.613ZM1112.5 101.613C1112.5 96.454 1111.37 91.8432 1109.1 87.8089L1107.36 88.7906C1109.44 92.4882 1110.5 96.7529 1110.5 101.613H1112.5ZM1109.1 87.8089C1106.83 83.7837 1103.68 80.6301 1099.65 78.3624L1098.67 80.1049C1102.38 82.1933 1105.27 85.0837 1107.36 88.7906L1109.1 87.8089ZM1099.67 78.3708C1095.68 76.036 1091.07 74.8849 1085.85 74.8849V76.8849C1090.76 76.8849 1095.02 77.9663 1098.66 80.0965L1099.67 78.3708ZM1085.85 74.8849C1080.41 74.8849 1075.54 76.1494 1071.29 78.7029L1072.32 80.4179C1076.23 78.0708 1080.73 76.8849 1085.85 76.8849V74.8849ZM1071.29 78.7008C1067.11 81.1863 1063.83 84.5539 1061.46 88.7912L1063.2 89.7684C1065.4 85.8381 1068.43 82.7261 1072.31 80.4199L1071.29 78.7008ZM1061.46 88.7862C1059.08 92.973 1057.87 97.6332 1057.82 102.745L1059.82 102.767C1059.87 97.9695 1061 93.6453 1063.2 89.7734L1061.46 88.7862ZM1057.82 102.756V123.257H1059.82V102.756H1057.82ZM1057.82 123.257C1057.82 129.587 1058.98 135.111 1061.35 139.799L1063.14 138.896C1060.94 134.544 1059.82 129.342 1059.82 123.257H1057.82ZM1061.36 139.807C1063.78 144.49 1067.21 148.118 1071.63 150.668L1072.63 148.936C1068.55 146.585 1065.39 143.244 1063.13 138.887L1061.36 139.807ZM1071.63 150.668C1076.06 153.221 1081.27 154.477 1087.24 154.477V152.477C1081.56 152.477 1076.7 151.283 1072.63 148.936L1071.63 150.668ZM1087.24 154.477C1091.2 154.477 1094.85 153.919 1098.18 152.791L1097.54 150.897C1094.44 151.946 1091.01 152.477 1087.24 152.477V154.477ZM1098.18 152.791C1101.52 151.659 1104.4 149.953 1106.8 147.667L1105.42 146.219C1103.24 148.29 1100.62 149.851 1097.54 150.897L1098.18 152.791ZM1106.8 147.667C1109.2 145.379 1111.02 142.582 1112.27 139.294L1110.4 138.584C1109.25 141.612 1107.59 144.151 1105.42 146.219L1106.8 147.667ZM1111.27 139.937L1143.45 142.06L1143.58 140.065L1111.4 137.941L1111.27 139.937ZM1142.54 140.856C1140.94 148.425 1137.66 155.02 1132.72 160.659L1134.22 161.978C1139.4 156.073 1142.82 149.164 1144.49 141.269L1142.54 140.856ZM1132.72 160.659C1127.82 166.245 1121.48 170.624 1113.65 173.786L1114.4 175.64C1122.48 172.377 1129.1 167.827 1134.22 161.977L1132.72 160.659ZM1113.66 173.785C1105.9 176.886 1096.91 178.45 1086.67 178.45V180.45C1097.11 180.45 1106.36 178.856 1114.4 175.642L1113.66 173.785Z" fill="white" mask="url(#path-1-outside-1_1_256)"/>
</g>
</svg>
