<svg width="212" height="265" viewBox="0 0 212 265" fill="none" xmlns="http://www.w3.org/2000/svg">
<g opacity="0.1" filter="url(#filter0_d_1_255)">
<path d="M233.133 257H177.808C169.82 256.986 162.163 253.806 156.515 248.158C150.866 242.509 147.687 234.852 147.672 226.864C147.671 216.419 149.096 206.023 151.907 195.963C156.004 181.081 156.48 165.435 153.295 150.332C150.11 135.229 143.357 121.107 133.599 109.148L132.779 108.304L131.641 109.411C111.189 133.408 103.967 165.378 112.327 195.119C115.232 205.448 116.707 216.127 116.708 226.857C116.696 234.846 113.517 242.505 107.869 248.155C102.22 253.805 94.5623 256.986 86.5729 257H31.8675C24.4766 257 17.3884 254.064 12.1622 248.838C6.93603 243.612 4 236.523 4 229.133V30.1356C4.01432 22.1476 7.19392 14.4908 12.8423 8.84243C18.4907 3.19402 26.1475 0.0144166 34.1356 9.19101e-05H48.5802C62.2367 -0.0254715 75.3635 5.28244 85.164 14.7931L85.5123 15.1414L133.344 64.4049L184.813 14.0886C194.544 5.0214 207.354 -0.0139883 220.654 9.19101e-05H230.864C238.852 0.0144166 246.509 3.19402 252.158 8.84243C257.806 14.4908 260.986 22.1476 261 30.1356V229.133C261 236.523 258.064 243.612 252.838 248.838C247.612 254.064 240.523 257 233.133 257ZM178.644 226.036H230.036V30.9639H220.654C215.238 30.9584 210.017 32.9861 206.024 36.6458L154.949 86.6215L156.752 88.487L157.163 88.9824C170.231 104.816 179.29 123.565 183.572 143.643C187.855 163.721 187.234 184.536 181.764 204.323C179.774 211.392 178.726 218.693 178.644 226.036ZM34.9639 226.036H85.7368C85.6668 218.403 84.5839 210.812 82.5166 203.463C71.2844 163.497 81.0458 120.581 108.619 88.665L109.045 88.1697L111.205 86.0563L63.4893 36.909C59.4679 33.0856 54.1291 30.9568 48.5802 30.9639H34.9639V226.036Z" fill="url(#paint0_linear_1_255)"/>
<path d="M220.655 30.4639C215.113 30.4583 209.771 32.5329 205.686 36.2772L205.68 36.2827L205.674 36.2884L154.599 86.2641L154.244 86.6117L154.589 86.969L156.38 88.8207L156.777 89.3007C169.794 105.072 178.818 123.748 183.083 143.748C187.349 163.747 186.731 184.479 181.282 204.189C179.281 211.3 178.226 218.644 178.144 226.031L178.138 226.536H178.644H230.036H230.536V226.036V30.9639V30.4639H230.036H220.655ZM220.655 30.4639L220.654 30.9639M220.655 30.4639H220.654V30.9639M220.654 30.9639H229.536L206.024 36.6458C210.017 32.9861 215.238 30.9584 220.654 30.9639ZM152.388 196.097L152.389 196.095C156.507 181.137 156.986 165.41 153.785 150.229C150.583 135.048 143.795 120.853 133.987 108.832L133.973 108.815L133.958 108.799L133.137 107.955L132.788 107.597L132.43 107.945L131.292 109.052L131.275 109.069L131.26 109.087C110.703 133.207 103.439 165.349 111.846 195.254L112.327 195.119L111.846 195.254C114.739 205.539 116.207 216.172 116.208 226.856C116.196 234.713 113.07 242.245 107.515 247.801C101.96 253.358 94.429 256.486 86.572 256.5H31.8675C24.6092 256.5 17.6481 253.617 12.5157 248.484C7.38335 243.352 4.5 236.391 4.5 229.133V30.1361C4.51421 22.2805 7.64112 14.7507 13.1959 9.19598C18.7506 3.64122 26.2804 0.514293 34.136 0.500092L48.5802 0.500093L48.5811 0.500091C62.106 0.474774 75.1063 5.731 84.813 15.1491C84.8139 15.15 84.8149 15.151 84.8158 15.1519L85.1536 15.4897L85.1588 15.4949L132.985 64.7532L133.335 65.1132L133.693 64.7624L185.154 14.4545C185.156 14.4531 185.157 14.4518 185.158 14.4505C194.796 5.47211 207.482 0.486148 220.654 0.500092H220.654H230.864C238.72 0.514293 246.249 3.64122 251.804 9.19598C257.359 14.7508 260.486 22.2808 260.5 30.1365V229.133C260.5 236.391 257.617 243.352 252.484 248.484C247.352 253.617 240.391 256.5 233.133 256.5H177.809C169.953 256.486 162.423 253.359 156.868 247.804C151.313 242.249 148.186 234.719 148.172 226.863C148.172 216.464 149.59 206.113 152.388 196.097ZM34.4639 226.036V226.536H34.9639H85.7368H86.2414L86.2368 226.032C86.1664 218.354 85.0773 210.719 82.9979 203.328C71.8121 163.526 81.5317 120.783 108.997 88.9919L108.998 88.9909L109.41 88.5119L111.554 86.4137L111.91 86.0654L111.563 85.7081L63.8481 36.5607L63.8411 36.5535L63.8338 36.5466C59.7193 32.6347 54.2569 30.4566 48.5796 30.4639H34.9639H34.4639V30.9639V226.036Z" stroke="black"/>
</g>
<defs>
<filter id="filter0_d_1_255" x="0" y="0" width="265" height="265" filterUnits="userSpaceOnUse" color-interpolation-filters="sRGB">
<feFlood flood-opacity="0" result="BackgroundImageFix"/>
<feColorMatrix in="SourceAlpha" type="matrix" values="0 0 0 0 0 0 0 0 0 0 0 0 0 0 0 0 0 0 127 0" result="hardAlpha"/>
<feOffset dy="4"/>
<feGaussianBlur stdDeviation="2"/>
<feComposite in2="hardAlpha" operator="out"/>
<feColorMatrix type="matrix" values="0 0 0 0 0 0 0 0 0 0 0 0 0 0 0 0 0 0 0.25 0"/>
<feBlend mode="normal" in2="BackgroundImageFix" result="effect1_dropShadow_1_255"/>
<feBlend mode="normal" in="SourceGraphic" in2="effect1_dropShadow_1_255" result="shape"/>
</filter>
<linearGradient id="paint0_linear_1_255" x1="12.5073" y1="9.17313" x2="250.31" y2="246.976" gradientUnits="userSpaceOnUse">
<stop stop-color="#D32053"/>
<stop offset="1" stop-color="#460BC6"/>
</linearGradient>
</defs>
</svg>
