<svg width="50" height="50" viewBox="0 0 50 50" fill="none" xmlns="http://www.w3.org/2000/svg">
<path id="Vector" d="M44.0509 49.4048H33.4147C31.879 49.402 30.407 48.7908 29.321 47.705C28.2351 46.6191 27.6239 45.1472 27.6211 43.6116C27.6209 41.6036 27.8948 39.6051 28.4352 37.6712C29.2229 34.8104 29.3144 31.8027 28.7021 28.8993C28.0898 25.9959 26.7915 23.2813 24.9155 20.9822L24.7578 20.82L24.539 21.0328C20.6072 25.6459 19.2187 31.7917 20.826 37.509C21.3845 39.4946 21.6679 41.5475 21.6683 43.6101C21.6659 45.146 21.0548 46.6183 19.9689 47.7044C18.8829 48.7906 17.4107 49.402 15.8747 49.4048H5.35754C3.93663 49.4048 2.57392 48.8404 1.56919 47.8357C0.564454 46.831 0 45.4684 0 44.0476V5.79317C0.00275394 4.25758 0.614033 2.78567 1.69994 1.69984C2.78586 0.614007 4.25788 0.0027714 5.79358 1.76685e-05H8.57058C11.1961 -0.00489656 13.7197 1.01548 15.6038 2.84377L15.6708 2.91073L24.8664 12.381L34.7615 2.70835C36.6322 0.965295 39.0949 -0.00268906 41.6519 1.76685e-05H43.6149C45.1506 0.0027714 46.6226 0.614007 47.7085 1.69984C48.7944 2.78567 49.4057 4.25758 49.4084 5.79317V44.0476C49.4084 45.4684 48.844 46.831 47.8392 47.8357C46.8345 48.8404 45.4718 49.4048 44.0509 49.4048ZM33.5754 43.4524H43.4556V5.9524H41.6519C40.6106 5.95134 39.6068 6.34114 38.8392 7.04466L29.02 16.6518L29.3668 17.0104L29.4456 17.1057C31.958 20.1494 33.6996 23.7538 34.5229 27.6135C35.3462 31.4732 35.2269 35.4745 34.1752 39.2783C33.7928 40.6373 33.5911 42.0407 33.5754 43.4524ZM5.95282 43.4524H15.714C15.7005 41.985 15.4923 40.5258 15.0949 39.1131C12.9355 31.4301 14.8121 23.1801 20.1131 17.0447L20.195 16.9494L20.6102 16.5432L11.4369 7.09525C10.6637 6.36026 9.63735 5.95102 8.57058 5.9524H5.95282V43.4524Z" fill="url(#paint0_linear_1_197)"/>
<defs>
<linearGradient id="paint0_linear_1_197" x1="1.63554" y1="1.76341" x2="47.3498" y2="47.4811" gradientUnits="userSpaceOnUse">
<stop stop-color="#D32053"/>
<stop offset="1" stop-color="#460BC6"/>
</linearGradient>
</defs>
</svg>
